<svg xmlns="http://www.w3.org/2000/svg"
 xmlns:xlink="http://www.w3.org/1999/xlink"
 width="34px" height="34px"  viewBox="0 0 34 34">
<path fill-rule="evenodd"  fill="#ffffff"
 d="M27.663391,6.324543 C28.035995,6.3378525 28.408882,6.351166 28.781479,6.3644753 C29.090187,6.3644753 29.497025,6.336117 29.73993,6.4044113 C30.245758,6.4044113 30.751678,6.4044113 31.257507,6.4044113 C31.661102,6.5493927 31.972382,6.857872 32.01625,7.3648643 C32.0029,7.3648643 31.98964,7.3648643 31.976288,7.3648643 C31.963036,7.4444466 31.949684,7.524605 31.936333,7.604473 C31.92308,7.604473 31.909729,7.604473 31.89647,7.604473 C31.89647,7.644985 31.89647,7.6846313 31.89647,7.7248535 C31.869858,7.737877 31.843155,7.7514763 31.816551,7.7647896 C31.816551,7.7914124 31.816551,7.818035 31.816551,7.844658 C31.497162,8.1514015 31.17759,8.458145 30.858109,8.764599 C29.926468,9.7114525 28.994438,10.658596 28.062698,11.60516 C26.638481,11.60516 25.213882,11.60516 23.789665,11.60516 C23.470276,11.938236 23.150703,12.271893 22.831223,12.604969 C22.764656,12.6585045 22.69809,12.71175 22.631523,12.7652855 C22.353813,13.149872 22.002762,13.434914 21.673172,13.765095 C21.233917,14.218845 20.794556,14.672012 20.355293,15.125763 C20.089508,15.317913 19.864723,15.536972 19.636414,15.765583 C18.957588,16.458939 18.278572,17.152298 17.599747,17.84565 C17.559883,17.84565 17.519928,17.84565 17.479965,17.84565 C17.466705,17.872276 17.453354,17.899185 17.440002,17.925812 C17.373535,17.939117 17.306969,17.95243 17.240402,17.965744 C17.240402,17.979057 17.240402,17.992363 17.240402,18.005966 C17.00856,18.080048 16.590378,17.919441 16.481567,17.84565 C16.415092,17.766068 16.348526,17.685913 16.28196,17.605751 C16.255356,17.592445 16.228653,17.579132 16.202042,17.565819 C16.188782,17.512573 16.17543,17.459038 16.162178,17.405792 C16.148827,17.405792 16.135475,17.405792 16.122223,17.405792 C16.122223,17.379456 16.122223,17.352547 16.122223,17.32592 C16.108871,17.32592 16.095612,17.32592 16.08226,17.32592 C16.08226,17.299301 16.08226,17.272675 16.08226,17.246056 C16.068909,17.246056 16.055649,17.246056 16.042297,17.246056 C16.042297,17.08574 16.042297,16.925713 16.042297,16.765686 C16.055649,16.765686 16.068909,16.765686 16.08226,16.765686 C16.095612,16.712433 16.108871,16.658897 16.122223,16.605652 C16.135475,16.605652 16.148827,16.605652 16.162178,16.605652 C16.162178,16.56572 16.162178,16.525787 16.162178,16.485565 C16.188782,16.472542 16.215393,16.458939 16.242004,16.445915 C16.242004,16.419006 16.242004,16.39238 16.242004,16.36576 C16.255356,16.36576 16.268608,16.36576 16.28196,16.36576 C16.33928,16.29486 16.372559,16.269684 16.401741,16.165794 C16.428345,16.165794 16.454956,16.165794 16.481567,16.165794 C16.509796,16.041939 16.559479,15.99564 16.68126,15.965546 C16.68126,15.938923 16.68126,15.9123 16.68126,15.885387 C16.70787,15.885387 16.734573,15.885387 16.761185,15.885387 C16.761185,15.858765 16.761185,15.832142 16.761185,15.805519 C16.787788,15.805519 16.814392,15.805519 16.841003,15.805519 C16.841003,15.779182 16.841003,15.751984 16.841003,15.725647 C16.867615,15.725647 16.894318,15.725647 16.920921,15.725647 C16.920921,15.699024 16.920921,15.672401 16.920921,15.645779 C16.947525,15.645779 16.974136,15.645779 17.000748,15.645779 C17.02964,15.535236 17.011902,15.556072 17.12053,15.525688 C17.12053,15.4987755 17.12053,15.472153 17.12053,15.44553 C17.147232,15.44553 17.173836,15.44553 17.20044,15.44553 C17.20044,15.418903 17.20044,15.3925705 17.20044,15.365368 C17.22705,15.365368 17.253662,15.365368 17.280266,15.365368 C17.280266,15.339035 17.280266,15.312412 17.280266,15.2857895 C17.306969,15.2857895 17.333572,15.2857895 17.360184,15.2857895 C17.360184,15.259167 17.360184,15.232254 17.360184,15.205631 C17.386795,15.205631 17.413399,15.205631 17.440002,15.205631 C17.440002,15.1790085 17.440002,15.152386 17.440002,15.125763 C17.466705,15.125763 17.493317,15.125763 17.519928,15.125763 C17.54882,15.015221 17.531082,15.0360565 17.63971,15.005379 C17.63971,14.979046 17.63971,14.951843 17.63971,14.92551 C17.666313,14.92551 17.692917,14.92551 17.71962,14.92551 C17.71962,14.898888 17.71962,14.872265 17.71962,14.845642 C17.746231,14.845642 17.772842,14.845642 17.799446,14.845642 C17.799446,14.818729 17.799446,14.792107 17.799446,14.765484 C17.82605,14.765484 17.852661,14.765484 17.879364,14.765484 C17.879364,14.738861 17.879364,14.712238 17.879364,14.685326 C17.905975,14.685326 17.932579,14.685326 17.959183,14.685326 C17.959183,14.658703 17.959183,14.63208 17.959183,14.605457 C17.985794,14.605457 18.012405,14.605457 18.039108,14.605457 C18.067902,14.494911 18.05017,14.516037 18.15889,14.485653 C18.15889,14.45903 18.15889,14.432117 18.15889,14.405495 C18.185493,14.405495 18.212097,14.405495 18.238708,14.405495 C18.238708,14.378872 18.238708,14.352249 18.238708,14.325626 C18.26532,14.325626 18.292023,14.325626 18.318626,14.325626 C18.318626,14.298714 18.318626,14.272091 18.318626,14.245468 C18.34523,14.245468 18.371841,14.245468 18.398453,14.245468 C18.398453,14.218845 18.398453,14.192223 18.398453,14.16531 C18.425056,14.16531 18.45176,14.16531 18.478363,14.16531 C18.478363,14.138687 18.478363,14.112064 18.478363,14.085438 C18.504974,14.085438 18.531586,14.085438 18.55819,14.085438 C18.587082,13.9748955 18.569351,13.996021 18.67807,13.965637 C18.67807,13.939014 18.67807,13.912102 18.67807,13.885479 C18.704674,13.885479 18.731277,13.885479 18.757889,13.885479 C18.757889,13.858856 18.757889,13.832233 18.757889,13.805607 C18.7845,13.805607 18.811104,13.805607 18.837807,13.805607 C18.890259,13.607674 19.25447,13.347809 19.39685,13.205143 C19.39685,13.192123 19.39685,13.17852 19.39685,13.165501 C19.836113,12.738373 20.275467,12.311825 20.714737,11.884991 C20.85225,11.747246 21.079704,11.417351 21.273773,11.365261 C21.273773,11.338638 21.273773,11.312016 21.273773,11.285103 C21.300385,11.285103 21.326996,11.285103 21.353699,11.285103 C21.353699,11.25848 21.353699,11.231857 21.353699,11.205235 C21.380302,11.205235 21.406906,11.205235 21.433517,11.205235 C21.433517,11.178612 21.433517,11.151699 21.433517,11.125076 C21.460129,11.125076 21.486732,11.125076 21.513435,11.125076 C21.542236,11.014534 21.524498,11.03537 21.633217,11.004696 C21.633217,10.978073 21.633217,10.951736 21.633217,10.925114 C21.65982,10.925114 21.686432,10.925114 21.713043,10.925114 C21.713043,10.898491 21.713043,10.871578 21.713043,10.844955 C21.739647,10.844955 21.76635,10.844955 21.792953,10.844955 C21.792953,10.818333 21.792953,10.79171 21.792953,10.765087 C21.819565,10.765087 21.846176,10.765087 21.87278,10.765087 C21.87278,10.738174 21.87278,10.711552 21.87278,10.684929 C21.899384,10.684929 21.926086,10.684929 21.952698,10.684929 C21.952698,10.658306 21.952698,10.631393 21.952698,10.604771 C22.063034,10.575832 22.042053,10.593773 22.07248,10.484966 C22.09909,10.484966 22.125694,10.484966 22.152397,10.484966 C22.152397,10.4583435 22.152397,10.431721 22.152397,10.405098 C22.179,10.405098 22.205612,10.405098 22.232224,10.405098 C22.232224,10.378475 22.232224,10.3515625 22.232224,10.32494 C22.258827,10.32494 22.28543,10.32494 22.312134,10.32494 C22.312134,10.298317 22.312134,10.271694 22.312134,10.2447815 C22.338745,10.2447815 22.365356,10.2447815 22.39196,10.2447815 C22.470642,9.802319 22.431915,9.193172 22.431915,8.684731 C22.431915,7.7514763 22.431915,6.817646 22.431915,5.8843956 C22.528908,5.827965 22.562286,5.734497 22.631523,5.684723 C22.971893,5.4381714 23.218887,5.135769 23.510147,4.8440704 C24.188965,4.1776276 24.867981,3.5108948 25.546814,2.844162 C25.733154,2.6444893 25.919601,2.4439507 26.10585,2.244278 C26.132553,2.244278 26.159164,2.244278 26.185776,2.244278 C26.199127,2.2173653 26.21238,2.1907425 26.22573,2.1641197 C26.252335,2.1641197 26.278946,2.1641197 26.305557,2.1641197 C26.318909,2.137497 26.33216,2.1108742 26.345512,2.0839615 C26.413223,2.0422897 26.727264,1.9601059 26.864693,2.0040894 C26.864693,2.0174026 26.864693,2.0307121 26.864693,2.0440254 C26.904556,2.0440254 26.944519,2.0440254 26.984474,2.0440254 C26.984474,2.0573387 26.984474,2.0706482 26.984474,2.0839615 C27.011078,2.0839615 27.03769,2.0839615 27.0643,2.0839615 C27.077652,2.1108742 27.091003,2.137497 27.104256,2.1641197 C27.14421,2.1641197 27.184174,2.1641197 27.224037,2.1641197 C27.224037,2.1774292 27.224037,2.1907425 27.224037,2.204052 C27.303955,2.2709007 27.383774,2.3371696 27.4637,2.4043045 C27.4637,2.4309273 27.4637,2.45755 27.4637,2.4841728 C27.476952,2.4841728 27.490303,2.4841728 27.503654,2.4841728 C27.503654,2.5110855 27.503654,2.5377083 27.503654,2.564331 C27.516907,2.564331 27.530258,2.564331 27.543518,2.564331 C27.543518,2.6039772 27.543518,2.6444893 27.543518,2.6841354 C27.55687,2.6841354 27.57022,2.6841354 27.58348,2.6841354 C27.58348,2.9107208 27.58348,3.1373062 27.58348,3.3641777 C27.651947,3.611309 27.553146,4.0306244 27.623436,4.2844086 C27.636688,4.2844086 27.65004,4.2844086 27.663391,4.2844086 C27.663391,4.963875 27.663391,5.644211 27.663391,6.324543 ZM20.315338,8.084843 C20.195557,8.04491 20.075775,8.004684 19.955894,7.964752 C19.955894,7.951439 19.955894,7.9381294 19.955894,7.924816 C19.876068,7.9115067 19.796158,7.8981934 19.716331,7.884594 C19.716331,7.8712807 19.716331,7.857971 19.716331,7.844658 C19.689728,7.844658 19.663116,7.844658 19.636414,7.844658 C19.636414,7.8316383 19.636414,7.818035 19.636414,7.8050117 C19.556595,7.7914124 19.47667,7.778389 19.39685,7.7647896 C19.39685,7.7514763 19.39685,7.737877 19.39685,7.7248535 C19.356888,7.7248535 19.316933,7.7248535 19.27707,7.7248535 C19.27707,7.711254 19.27707,7.6982307 19.27707,7.6846313 C19.183899,7.671608 19.090721,7.6580086 18.997543,7.644985 C18.997543,7.631386 18.997543,7.6180725 18.997543,7.604473 C18.904373,7.5914497 18.811104,7.5778503 18.717926,7.564827 C18.717926,7.5512276 18.717926,7.538204 18.717926,7.524605 C18.198845,7.431423 17.679565,7.3379517 17.160484,7.244484 C16.987488,7.244484 16.814392,7.244484 16.641304,7.244484 C16.641304,7.2314606 16.641304,7.217861 16.641304,7.204548 C16.434166,7.1466713 15.518738,7.2010765 15.36348,7.244484 C15.190384,7.244484 15.017288,7.244484 14.844299,7.244484 C14.844299,7.2580833 14.844299,7.2711067 14.844299,7.284706 C14.73777,7.284706 14.631241,7.284706 14.524811,7.284706 C14.524811,7.2977295 14.524811,7.311329 14.524811,7.3243523 C14.431641,7.3243523 14.33847,7.3243523 14.245293,7.3243523 C14.245293,7.3379517 14.245293,7.351265 14.245293,7.3648643 C14.178726,7.3648643 14.11216,7.3648643 14.045593,7.3648643 C14.045593,7.3778877 14.045593,7.391487 14.045593,7.4045105 C13.965775,7.4045105 13.885849,7.4045105 13.805939,7.4045105 C13.805939,7.417824 13.805939,7.431423 13.805939,7.4444466 C13.752716,7.4444466 13.699509,7.4444466 13.646194,7.4444466 C13.646194,7.458046 13.646194,7.4710693 13.646194,7.4846687 C13.526413,7.497982 13.406631,7.5115814 13.28685,7.524605 C12.807632,7.6846313 12.328308,7.844658 11.849182,8.004684 C11.849182,8.017998 11.849182,8.031597 11.849182,8.04491 C11.795975,8.05822 11.7426605,8.071243 11.6894455,8.084843 C11.6894455,8.097866 11.6894455,8.111469 11.6894455,8.124489 C11.662842,8.124489 11.63623,8.124489 11.609528,8.124489 C11.609528,8.138092 11.609528,8.1514015 11.609528,8.165005 C11.569664,8.165005 11.529709,8.165005 11.489746,8.165005 C11.489746,8.178024 11.489746,8.1916275 11.489746,8.204647 C11.409927,8.23127 11.330002,8.257893 11.250183,8.284805 C11.250183,8.298119 11.250183,8.311428 11.250183,8.324741 C11.223572,8.324741 11.196869,8.324741 11.170265,8.324741 C11.170265,8.338051 11.170265,8.351364 11.170265,8.364674 C11.1436615,8.364674 11.11705,8.364674 11.090439,8.364674 C11.090439,8.377987 11.090439,8.3913 11.090439,8.40461 C11.010529,8.431522 10.930702,8.458145 10.850784,8.484768 C10.837524,8.511391 10.824173,8.538013 10.810822,8.564926 C10.731003,8.591549 10.651085,8.618172 10.571259,8.644794 C10.557907,8.671417 10.544655,8.69804 10.531303,8.724667 C10.478088,8.737976 10.424774,8.751289 10.371567,8.764599 C10.358307,8.791222 10.344955,8.818134 10.331604,8.844757 C10.278389,8.85807 10.225174,8.87138 10.17186,8.884693 C10.17186,8.898003 10.17186,8.911316 10.17186,8.924625 C10.132004,8.938229 10.092041,8.951538 10.052078,8.964851 C10.038826,8.991184 10.025475,9.017807 10.012123,9.04443 C9.985519,9.04443 9.958908,9.04443 9.932297,9.04443 C9.905693,9.084942 9.879089,9.124588 9.852478,9.164814 C9.825775,9.164814 9.799164,9.164814 9.77256,9.164814 C9.759209,9.191437 9.745956,9.218349 9.732605,9.244972 C9.705994,9.244972 9.679382,9.244972 9.652779,9.244972 C9.626175,9.284615 9.599472,9.324841 9.572861,9.364773 C9.546249,9.364773 9.519646,9.364773 9.493042,9.364773 C9.466431,9.404709 9.439728,9.444935 9.413116,9.484867 C9.386513,9.484867 9.359909,9.484867 9.333298,9.484867 C9.293335,9.538113 9.25338,9.591358 9.213516,9.644894 C9.186813,9.644894 9.160202,9.644894 9.133598,9.644894 C9.067032,9.724766 9.000465,9.804924 8.933899,9.885082 C8.907288,9.885082 8.880684,9.885082 8.85408,9.885082 C8.760902,9.991863 8.667725,10.098354 8.574554,10.204845 C8.348251,10.418121 8.121941,10.631683 7.89563,10.844955 C7.89563,10.871578 7.89563,10.898491 7.89563,10.925114 C7.815811,10.9916725 7.7358932,11.058231 7.6559753,11.125076 C7.6559753,11.151699 7.6559753,11.178612 7.6559753,11.205235 C7.6027603,11.244881 7.5495453,11.285103 7.496231,11.325039 C7.496231,11.351662 7.496231,11.378284 7.496231,11.405197 C7.456375,11.43182 7.4164124,11.458733 7.3764496,11.485355 C7.3764496,11.511978 7.3764496,11.538601 7.3764496,11.565224 C7.3364944,11.592136 7.296631,11.618759 7.256668,11.645382 C7.256668,11.671715 7.256668,11.698627 7.256668,11.72525 C7.2300644,11.738564 7.2034607,11.751873 7.176758,11.765186 C7.176758,11.791809 7.176758,11.818432 7.176758,11.845345 C7.1368866,11.871967 7.0969315,11.89859 7.0569763,11.925213 C7.0569763,11.951836 7.0569763,11.978748 7.0569763,12.005371 C7.030365,12.018394 7.0037537,12.031994 6.97715,12.045017 C6.97715,12.07164 6.97715,12.098553 6.97715,12.125175 C6.9505463,12.138775 6.9238434,12.151798 6.897232,12.165401 C6.883972,12.218357 6.8706207,12.271893 6.8572693,12.324848 C6.8306656,12.338448 6.804062,12.351761 6.7774506,12.36536 C6.764099,12.418606 6.750839,12.471855 6.737488,12.525391 C6.710884,12.53841 6.6842804,12.552013 6.657669,12.565033 C6.6310577,12.645191 6.604355,12.725063 6.577751,12.805222 C6.5511475,12.818531 6.524536,12.831844 6.497925,12.845154 C6.497925,12.871777 6.497925,12.898689 6.497925,12.925312 C6.4845734,12.925312 6.471321,12.925312 6.4579697,12.925312 C6.4579697,12.951935 6.4579697,12.978558 6.4579697,13.00518 C6.444618,13.00518 6.431366,13.00518 6.4180145,13.00518 C6.4180145,13.032093 6.4180145,13.058716 6.4180145,13.085339 C6.4047546,13.085339 6.391403,13.085339 6.3781433,13.085339 C6.3781433,13.111965 6.3781433,13.138588 6.3781433,13.165501 C6.364792,13.165501 6.3514404,13.165501 6.338188,13.165501 C6.338188,13.192123 6.338188,13.218746 6.338188,13.245369 C6.3248367,13.245369 6.3115845,13.245369 6.298233,13.245369 C6.2716217,13.325527 6.2450104,13.405106 6.2184067,13.485264 C6.205055,13.485264 6.191704,13.485264 6.1784515,13.485264 C6.1784515,13.5252 6.1784515,13.565422 6.1784515,13.605358 C6.1651,13.605358 6.15184,13.605358 6.138489,13.605358 C6.138489,13.631981 6.138489,13.658604 6.138489,13.685516 C6.1251373,13.685516 6.1118774,13.685516 6.098526,13.685516 C6.098526,13.712139 6.098526,13.738762 6.098526,13.765095 C6.0852737,13.765095 6.0719223,13.765095 6.05867,13.765095 C6.05867,13.791718 6.05867,13.81863 6.05867,13.845253 C6.0453186,13.845253 6.031967,13.845253 6.0187073,13.845253 C6.0187073,13.885479 6.0187073,13.925121 6.0187073,13.965637 C6.005356,13.965637 5.992096,13.965637 5.9787445,13.965637 C5.9787445,13.99226 5.9787445,14.018883 5.9787445,14.045506 C5.965393,14.045506 5.952141,14.045506 5.9387894,14.045506 C5.925537,14.125374 5.9121857,14.205242 5.898926,14.28511 C5.8855743,14.28511 5.872223,14.28511 5.858963,14.28511 C5.858963,14.311737 5.858963,14.338646 5.858963,14.365269 C5.8456116,14.365269 5.8323593,14.365269 5.819008,14.365269 C5.685875,14.845642 5.552742,15.325436 5.4197083,15.805519 C5.3930054,16.0457 5.366394,16.285599 5.3397827,16.525787 C5.3265305,16.525787 5.313179,16.525787 5.2998276,16.525787 C5.2998276,16.632278 5.2998276,16.73906 5.2998276,16.84584 C5.2865753,16.84584 5.273224,16.84584 5.259964,16.84584 C5.259964,17.01889 5.259964,17.19252 5.259964,17.36586 C5.2466125,17.36586 5.233261,17.36586 5.220001,17.36586 C5.162216,17.573051 5.216385,18.490677 5.259964,18.64579 C5.259964,18.819412 5.259964,18.992752 5.259964,19.165802 C5.273224,19.165802 5.2865753,19.165802 5.2998276,19.165802 C5.2998276,19.272583 5.2998276,19.379364 5.2998276,19.486145 C5.313179,19.486145 5.3265305,19.486145 5.3397827,19.486145 C5.3397827,19.57933 5.3397827,19.672798 5.3397827,19.765976 C5.353134,19.765976 5.366394,19.765976 5.3797455,19.765976 C5.3797455,19.832535 5.3797455,19.899384 5.3797455,19.965942 C5.3930054,19.965942 5.406357,19.965942 5.4197083,19.965942 C5.4197083,20.046097 5.4197083,20.126259 5.4197083,20.206131 C5.4329605,20.206131 5.446312,20.206131 5.459564,20.206131 C5.459564,20.259666 5.459564,20.312912 5.459564,20.366158 C5.4729156,20.366158 5.486267,20.366158 5.499527,20.366158 C5.499527,20.432709 5.499527,20.499557 5.499527,20.566116 C5.5128784,20.566116 5.5261383,20.566116 5.5394897,20.566116 C5.5394897,20.619362 5.5394897,20.672897 5.5394897,20.726143 C5.552742,20.726143 5.5660934,20.726143 5.579445,20.726143 C5.592697,20.81961 5.6060486,20.913086 5.6193085,21.006264 C5.63266,21.006264 5.6460114,21.006264 5.6592712,21.006264 C5.6592712,21.046196 5.6592712,21.086426 5.6592712,21.126068 C5.6726227,21.126068 5.685875,21.126068 5.6992264,21.126068 C5.6992264,21.179604 5.6992264,21.23285 5.6992264,21.286095 C5.7124786,21.286095 5.72583,21.286095 5.7391815,21.286095 C5.7391815,21.326317 5.7391815,21.366257 5.7391815,21.4059 C5.7524414,21.4059 5.765793,21.4059 5.7790527,21.4059 C5.7790527,21.446411 5.7790527,21.486061 5.7790527,21.526283 C5.792404,21.526283 5.8057556,21.526283 5.819008,21.526283 C5.819008,21.566216 5.819008,21.606438 5.819008,21.646088 C5.8323593,21.646088 5.8456116,21.646088 5.858963,21.646088 C5.858963,21.672707 5.858963,21.699623 5.858963,21.726242 C5.872223,21.726242 5.8855743,21.726242 5.898926,21.726242 C5.9121857,21.806114 5.925537,21.886269 5.9387894,21.96643 C5.952141,21.96643 5.965393,21.96643 5.9787445,21.96643 C5.9787445,21.99305 5.9787445,22.019676 5.9787445,22.046295 C5.992096,22.046295 6.005356,22.046295 6.0187073,22.046295 C6.0187073,22.086525 6.0187073,22.126457 6.0187073,22.16639 C6.031967,22.16639 6.0453186,22.16639 6.05867,22.16639 C6.0719223,22.219925 6.0852737,22.27317 6.098526,22.326416 C6.1118774,22.326416 6.1251373,22.326416 6.138489,22.326416 C6.138489,22.353333 6.138489,22.379951 6.138489,22.406578 C6.15184,22.406578 6.1651,22.406578 6.1784515,22.406578 C6.1784515,22.44622 6.1784515,22.486732 6.1784515,22.526382 C6.191704,22.526382 6.205055,22.526382 6.2184067,22.526382 C6.2450104,22.606537 6.2716217,22.686409 6.298233,22.766563 C6.3115845,22.766563 6.3248367,22.766563 6.338188,22.766563 C6.338188,22.79319 6.338188,22.819809 6.338188,22.846436 C6.3514404,22.846436 6.364792,22.846436 6.3781433,22.846436 C6.3781433,22.873344 6.3781433,22.899971 6.3781433,22.926598 C6.391403,22.926598 6.4047546,22.926598 6.4180145,22.926598 C6.444618,23.006462 6.471321,23.086334 6.497925,23.166489 C6.524536,23.179802 6.5511475,23.193115 6.577751,23.206429 C6.604355,23.286583 6.6310577,23.366165 6.657669,23.44632 C6.6842804,23.459923 6.710884,23.472946 6.737488,23.486542 C6.750839,23.540077 6.764099,23.59333 6.7774506,23.646576 C6.804062,23.659882 6.8306656,23.673485 6.8572693,23.686508 C6.8706207,23.739754 6.883972,23.79329 6.897232,23.846535 C6.9238434,23.859558 6.9505463,23.873161 6.97715,23.886177 C6.97715,23.913094 6.97715,23.939713 6.97715,23.966629 C6.990402,23.966629 7.0037537,23.966629 7.0170135,23.966629 C7.030365,24.006561 7.0437164,24.046494 7.0569763,24.086723 C7.08358,24.100029 7.110283,24.113342 7.1368866,24.126656 C7.1368866,24.153275 7.1368866,24.179901 7.1368866,24.20681 C7.176758,24.233437 7.216713,24.260063 7.256668,24.286682 C7.256668,24.313309 7.256668,24.340218 7.256668,24.366844 C7.296631,24.393463 7.3364944,24.42009 7.3764496,24.446709 C7.3764496,24.473625 7.3764496,24.500244 7.3764496,24.52687 C7.4164124,24.5532 7.456375,24.579826 7.496231,24.606735 C7.496231,24.633362 7.496231,24.65998 7.496231,24.686607 C7.5495453,24.72683 7.6027603,24.766762 7.6559753,24.806702 C7.6559753,24.83332 7.6559753,24.860237 7.6559753,24.886856 C7.7358932,24.953125 7.815811,25.019974 7.89563,25.086533 C7.89563,25.113441 7.89563,25.140068 7.89563,25.166687 C8.121941,25.37996 8.348251,25.593239 8.574554,25.8068 C8.667725,25.913582 8.760902,26.020363 8.85408,26.126564 C8.880684,26.126564 8.907288,26.126564 8.933899,26.126564 C9.000465,26.206726 9.067032,26.28688 9.133598,26.366753 C9.160202,26.366753 9.186813,26.366753 9.213516,26.366753 C9.25338,26.420288 9.293335,26.473534 9.333298,26.52678 C9.359909,26.52678 9.386513,26.52678 9.413116,26.52678 C9.439728,26.567291 9.466431,26.606934 9.493042,26.646873 C9.519646,26.646873 9.546249,26.646873 9.572861,26.646873 C9.599472,26.687096 9.626175,26.727028 9.652779,26.76696 C9.679382,26.76696 9.705994,26.76696 9.732605,26.76696 C9.759209,26.8069 9.785912,26.847122 9.812515,26.886765 C9.839127,26.886765 9.865738,26.886765 9.892342,26.886765 C9.905693,26.913391 9.918945,26.9403 9.932297,26.966927 C9.958908,26.966927 9.985519,26.966927 10.012123,26.966927 C10.025475,26.993546 10.038826,27.020172 10.052078,27.046791 C10.092041,27.060104 10.132004,27.073708 10.17186,27.08702 C10.17186,27.100327 10.17186,27.11364 10.17186,27.126953 C10.225174,27.140266 10.278389,27.153572 10.331604,27.166885 C10.344955,27.193512 10.358307,27.22042 10.371567,27.247047 C10.424774,27.26036 10.478088,27.273666 10.531303,27.28698 C10.544655,27.313316 10.557907,27.340225 10.571259,27.366852 C10.651085,27.39347 10.731003,27.420097 10.810822,27.446716 C10.824173,27.473633 10.837524,27.500252 10.850784,27.526878 C10.877396,27.526878 10.9040985,27.526878 10.930702,27.526878 C10.930702,27.540192 10.930702,27.553497 10.930702,27.56681 C10.957306,27.56681 10.983917,27.56681 11.010529,27.56681 C11.010529,27.580124 11.010529,27.593727 11.010529,27.607033 C11.037132,27.607033 11.063835,27.607033 11.090439,27.607033 C11.090439,27.620346 11.090439,27.63366 11.090439,27.646973 C11.11705,27.646973 11.1436615,27.646973 11.170265,27.646973 C11.170265,27.660278 11.170265,27.673592 11.170265,27.686905 C11.196869,27.686905 11.223572,27.686905 11.250183,27.686905 C11.250183,27.699928 11.250183,27.713524 11.250183,27.726837 C11.276794,27.726837 11.303398,27.726837 11.330002,27.726837 C11.330002,27.74044 11.330002,27.753464 11.330002,27.76706 C11.409927,27.793686 11.489746,27.820305 11.569664,27.846931 C11.569664,27.860245 11.569664,27.87384 11.569664,27.886864 C11.636139,27.900467 11.702797,27.91349 11.769272,27.927094 C11.769272,27.9404 11.769272,27.953712 11.769272,27.967026 C11.795876,27.967026 11.822578,27.967026 11.849182,27.967026 C11.849182,27.98034 11.849182,27.993645 11.849182,28.007248 C11.889145,28.007248 11.9290085,28.007248 11.968964,28.007248 C11.968964,28.020561 11.968964,28.033875 11.968964,28.04718 C11.995575,28.04718 12.022186,28.04718 12.048889,28.04718 C12.048889,28.060493 12.048889,28.073807 12.048889,28.08712 C12.128708,28.100426 12.208626,28.11345 12.288452,28.127052 C12.288452,28.140656 12.288452,28.153961 12.288452,28.166985 C12.315056,28.166985 12.34166,28.166985 12.368362,28.166985 C12.368362,28.180588 12.368362,28.193611 12.368362,28.207207 C12.488144,28.233833 12.607925,28.26046 12.727707,28.287369 C12.727707,28.300392 12.727707,28.313995 12.727707,28.327011 C12.781021,28.327011 12.834236,28.327011 12.887451,28.327011 C12.887451,28.340614 12.887451,28.353638 12.887451,28.36724 C12.927414,28.36724 12.967369,28.36724 13.007324,28.36724 C13.007324,28.380257 13.007324,28.39386 13.007324,28.407173 C13.100403,28.420776 13.19368,28.433792 13.28685,28.447395 C13.28685,28.460419 13.28685,28.474022 13.28685,28.487038 C13.340065,28.487038 13.39328,28.487038 13.446594,28.487038 C13.446594,28.50064 13.446594,28.513664 13.446594,28.526978 C13.566376,28.540573 13.686157,28.553596 13.805939,28.5672 C13.805939,28.580223 13.805939,28.593826 13.805939,28.606842 C13.885849,28.606842 13.965775,28.606842 14.045593,28.606842 C14.045593,28.620445 14.045593,28.633469 14.045593,28.647072 C14.11216,28.647072 14.178726,28.647072 14.245293,28.647072 C14.245293,28.660378 14.245293,28.67398 14.245293,28.687004 C14.33847,28.687004 14.431641,28.687004 14.524811,28.687004 C14.524811,28.700607 14.524811,28.713623 14.524811,28.727226 C14.804337,28.74025 15.083954,28.753853 15.36348,28.766876 C15.36348,28.780472 15.36348,28.793785 15.36348,28.807388 C15.570709,28.864975 16.486145,28.81086 16.641304,28.766876 C16.920822,28.753853 17.20044,28.74025 17.479965,28.727226 C17.479965,28.713623 17.479965,28.700607 17.479965,28.687004 C17.573135,28.687004 17.666313,28.687004 17.759491,28.687004 C17.759491,28.67398 17.759491,28.660378 17.759491,28.647072 C17.82605,28.647072 17.892624,28.647072 17.959183,28.647072 C17.959183,28.633469 17.959183,28.620445 17.959183,28.606842 C18.039108,28.606842 18.118927,28.606842 18.198845,28.606842 C18.198845,28.593826 18.198845,28.580223 18.198845,28.5672 C18.25206,28.5672 18.305275,28.5672 18.358582,28.5672 C18.358582,28.553596 18.358582,28.540573 18.358582,28.526978 C18.478363,28.513664 18.598145,28.50064 18.717926,28.487038 C18.717926,28.474022 18.717926,28.460419 18.717926,28.447395 C18.757889,28.447395 18.797852,28.447395 18.837807,28.447395 C18.837807,28.433792 18.837807,28.420776 18.837807,28.407173 C18.891022,28.407173 18.944237,28.407173 18.997543,28.407173 C18.997543,28.39386 18.997543,28.380257 18.997543,28.36724 C19.037415,28.36724 19.07737,28.36724 19.117325,28.36724 C19.117325,28.353638 19.117325,28.340614 19.117325,28.327011 C19.170547,28.327011 19.223755,28.327011 19.27707,28.327011 C19.27707,28.313995 19.27707,28.300392 19.27707,28.287369 C19.316933,28.287369 19.356888,28.287369 19.39685,28.287369 C19.39685,28.273766 19.39685,28.26046 19.39685,28.246857 C19.436813,28.246857 19.476768,28.246857 19.516632,28.246857 C19.516632,28.233833 19.516632,28.22023 19.516632,28.207207 C19.556595,28.207207 19.59655,28.207207 19.636414,28.207207 C19.636414,28.193611 19.636414,28.180588 19.636414,28.166985 C19.663116,28.166985 19.689728,28.166985 19.716331,28.166985 C19.716331,28.153961 19.716331,28.140656 19.716331,28.127052 C19.796158,28.11345 19.876068,28.100426 19.955894,28.08712 C19.955894,28.073807 19.955894,28.060493 19.955894,28.04718 C19.982597,28.04718 20.009201,28.04718 20.035812,28.04718 C20.035812,28.033875 20.035812,28.020561 20.035812,28.007248 C20.075775,28.007248 20.115631,28.007248 20.155594,28.007248 C20.155594,27.993645 20.155594,27.98034 20.155594,27.967026 C20.208809,27.953712 20.262115,27.9404 20.315338,27.927094 C20.315338,27.91349 20.315338,27.900467 20.315338,27.886864 C20.341942,27.886864 20.368645,27.886864 20.395248,27.886864 C20.395248,27.87384 20.395248,27.860245 20.395248,27.846931 C20.43512,27.846931 20.475075,27.846931 20.51503,27.846931 C20.51503,27.833328 20.51503,27.820305 20.51503,27.80671 C20.594856,27.780083 20.674774,27.753464 20.754593,27.726837 C20.754593,27.713524 20.754593,27.699928 20.754593,27.686905 C20.781296,27.686905 20.807907,27.686905 20.834518,27.686905 C20.834518,27.673592 20.834518,27.660278 20.834518,27.646973 C20.861122,27.646973 20.887726,27.646973 20.914337,27.646973 C20.914337,27.63366 20.914337,27.620346 20.914337,27.607033 C20.994255,27.580124 21.074081,27.553497 21.153992,27.526878 C21.167252,27.500252 21.180603,27.473633 21.193954,27.446716 C21.273773,27.420097 21.353699,27.39347 21.433517,27.366852 C21.446869,27.340225 21.460129,27.313316 21.47348,27.28698 C21.526688,27.273666 21.580002,27.26036 21.633217,27.247047 C21.64647,27.22042 21.65982,27.193512 21.673172,27.166885 C21.726395,27.153572 21.779602,27.140266 21.832916,27.126953 C21.846176,27.100327 21.859528,27.073708 21.87278,27.046791 C21.899384,27.046791 21.926086,27.046791 21.952698,27.046791 C21.952698,27.033485 21.952698,27.020172 21.952698,27.006859 C21.992561,26.993546 22.032516,26.98024 22.07248,26.966927 C22.08583,26.9403 22.09909,26.913391 22.112442,26.886765 C22.139046,26.886765 22.16565,26.886765 22.19226,26.886765 C22.205612,26.860146 22.218872,26.833519 22.232224,26.8069 C22.272179,26.793587 22.312134,26.779984 22.352005,26.76696 C22.378609,26.727028 22.405312,26.687096 22.431915,26.646873 C22.458527,26.646873 22.485138,26.646873 22.511742,26.646873 C22.538345,26.606934 22.565048,26.567291 22.59166,26.52678 C22.61827,26.52678 22.644875,26.52678 22.671478,26.52678 C22.711441,26.473534 22.751404,26.420288 22.79126,26.366753 C22.817963,26.366753 22.844574,26.366753 22.871185,26.366753 C22.937744,26.28688 23.004318,26.206726 23.070877,26.126564 C23.097488,26.126564 23.1241,26.126564 23.150703,26.126564 C23.283836,25.98014 23.41697,25.83342 23.550102,25.686417 C23.73645,25.513367 23.922798,25.340027 24.109146,25.166687 C24.109146,25.140068 24.109146,25.113441 24.109146,25.086533 C24.189064,25.019974 24.26889,24.953125 24.3488,24.886856 C24.3488,24.860237 24.3488,24.83332 24.3488,24.806702 C24.402023,24.766762 24.45523,24.72683 24.508545,24.686607 C24.508545,24.65998 24.508545,24.633362 24.508545,24.606735 C24.548409,24.579826 24.588364,24.5532 24.628326,24.52687 C24.628326,24.500244 24.628326,24.473625 24.628326,24.446709 C24.66829,24.42009 24.708145,24.393463 24.748108,24.366844 C24.76146,24.326614 24.77472,24.286682 24.78807,24.24646 C24.814674,24.233437 24.841278,24.219833 24.86789,24.20681 C24.86789,24.179901 24.86789,24.153275 24.86789,24.126656 C24.8945,24.113342 24.921204,24.100029 24.947807,24.086723 C24.96106,24.046494 24.974411,24.006561 24.987762,23.966629 C25.001022,23.966629 25.014374,23.966629 25.027634,23.966629 C25.027634,23.939713 25.027634,23.913094 25.027634,23.886177 C25.054237,23.873161 25.08094,23.859558 25.107544,23.846535 C25.120804,23.79329 25.134155,23.739754 25.147507,23.686508 C25.174118,23.673485 25.200722,23.659882 25.227325,23.646576 C25.240677,23.59333 25.253937,23.540077 25.267288,23.486542 C25.2939,23.472946 25.320503,23.459923 25.347107,23.44632 C25.373718,23.366165 25.400421,23.286583 25.427032,23.206429 C25.453636,23.193115 25.48024,23.179802 25.506851,23.166489 C25.506851,23.13987 25.506851,23.112953 25.506851,23.086334 C25.520203,23.086334 25.533463,23.086334 25.546814,23.086334 C25.546814,23.059708 25.546814,23.033089 25.546814,23.006462 C25.560165,23.006462 25.573418,23.006462 25.58677,23.006462 C25.58677,22.979553 25.58677,22.952927 25.58677,22.926598 C25.600021,22.926598 25.613373,22.926598 25.626633,22.926598 C25.626633,22.899971 25.626633,22.873344 25.626633,22.846436 C25.639984,22.846436 25.653336,22.846436 25.666595,22.846436 C25.666595,22.819809 25.666595,22.79319 25.666595,22.766563 C25.679947,22.766563 25.6932,22.766563 25.70655,22.766563 C25.70655,22.739944 25.70655,22.713028 25.70655,22.686409 C25.719902,22.686409 25.733154,22.686409 25.746506,22.686409 C25.773117,22.606537 25.799728,22.526382 25.826332,22.44622 C25.839684,22.44622 25.852936,22.44622 25.866287,22.44622 C25.866287,22.406578 25.866287,22.366356 25.866287,22.326416 C25.879639,22.326416 25.892899,22.326416 25.90625,22.326416 C25.91951,22.27317 25.932861,22.219925 25.946114,22.16639 C25.959465,22.16639 25.972816,22.16639 25.986069,22.16639 C26.145813,21.6866 26.305557,21.20623 26.465294,20.726143 C26.478645,20.606049 26.491898,20.485962 26.505249,20.366158 C26.518509,20.366158 26.53186,20.366158 26.545212,20.366158 C26.545212,20.312912 26.545212,20.259666 26.545212,20.206131 C26.558472,20.206131 26.571823,20.206131 26.585075,20.206131 C26.585075,20.126259 26.585075,20.046097 26.585075,19.965942 C26.598427,19.965942 26.611778,19.965942 26.62503,19.965942 C26.62503,19.899384 26.62503,19.832535 26.62503,19.765976 C26.638382,19.765976 26.651642,19.765976 26.664993,19.765976 C26.691605,19.526085 26.718208,19.286186 26.744812,19.045998 C26.744812,18.912598 26.744812,18.77919 26.744812,18.64579 C26.758163,18.64579 26.771515,18.64579 26.784775,18.64579 C26.842567,18.438301 26.788399,17.521255 26.744812,17.36586 C26.73156,17.08574 26.718208,16.805618 26.704956,16.525787 C26.691605,16.525787 26.678253,16.525787 26.664993,16.525787 C26.664993,16.432312 26.664993,16.339134 26.664993,16.245377 C26.651642,16.245377 26.638382,16.245377 26.62503,16.245377 C26.62503,16.179108 26.62503,16.112259 26.62503,16.0457 C26.611778,16.0457 26.598427,16.0457 26.585075,16.0457 C26.585075,15.965546 26.585075,15.885387 26.585075,15.805519 C26.571823,15.805519 26.558472,15.805519 26.545212,15.805519 C26.53186,15.685715 26.518509,15.56562 26.505249,15.44553 C26.491898,15.44553 26.478645,15.44553 26.465294,15.44553 C26.465294,15.3925705 26.465294,15.339035 26.465294,15.2857895 C26.452042,15.2857895 26.43869,15.2857895 26.425339,15.2857895 C26.412079,15.192032 26.398727,15.09885 26.385468,15.005379 C26.372116,15.005379 26.358864,15.005379 26.345512,15.005379 C26.345512,14.965446 26.345512,14.92551 26.345512,14.885578 C26.33216,14.885578 26.318909,14.885578 26.305557,14.885578 C26.305557,14.832043 26.305557,14.778797 26.305557,14.725548 C26.292297,14.725548 26.278946,14.725548 26.265594,14.725548 C26.265594,14.685326 26.265594,14.64539 26.265594,14.605457 C26.252335,14.605457 26.238983,14.605457 26.22573,14.605457 C26.22573,14.565231 26.22573,14.525299 26.22573,14.485653 C26.21238,14.485653 26.199127,14.485653 26.185776,14.485653 C26.185776,14.445141 26.185776,14.405495 26.185776,14.365269 C26.172424,14.365269 26.159164,14.365269 26.145813,14.365269 C26.145813,14.338646 26.145813,14.311737 26.145813,14.28511 C26.132553,14.28511 26.119202,14.28511 26.10585,14.28511 C26.092598,14.205242 26.079247,14.125374 26.065994,14.045506 C26.052643,14.045506 26.039383,14.045506 26.026031,14.045506 C25.986069,13.925121 25.946114,13.805607 25.90625,13.685516 C26.736038,13.689278 27.823227,13.779274 28.462097,13.565422 C28.635094,13.538509 28.808182,13.511887 28.981186,13.485264 C28.981186,13.47224 28.981186,13.458641 28.981186,13.445618 C29.021141,13.432018 29.061096,13.418995 29.100967,13.405106 C29.100967,13.392082 29.100967,13.378483 29.100967,13.36517 C29.178787,13.346073 29.154175,13.388611 29.180878,13.405106 C29.318115,13.529541 29.305527,13.813133 29.380585,14.00528 C29.558441,14.460766 29.633018,15.0320015 29.779884,15.525688 C29.793236,15.699024 29.806488,15.872364 29.81984,16.0457 C29.8331,16.0457 29.84645,16.0457 29.859802,16.0457 C29.859802,16.138596 29.859802,16.232353 29.859802,16.325531 C29.873062,16.325531 29.886414,16.325531 29.899666,16.325531 C29.899666,16.458939 29.899666,16.592346 29.899666,16.725746 C29.913017,16.725746 29.926369,16.725746 29.939621,16.725746 C29.939621,16.899086 29.939621,17.072136 29.939621,17.246056 C30.024406,17.554245 30.026505,18.457977 29.939621,18.765884 C29.939621,18.939507 29.939621,19.112556 29.939621,19.286186 C29.926369,19.286186 29.913017,19.286186 29.899666,19.286186 C29.899666,19.419014 29.899666,19.552704 29.899666,19.685822 C29.886414,19.685822 29.873062,19.685822 29.859802,19.685822 C29.859802,19.77929 29.859802,19.872765 29.859802,19.965942 C29.84645,19.965942 29.8331,19.965942 29.81984,19.965942 C29.81984,20.05941 29.81984,20.152878 29.81984,20.246063 C29.764343,20.434448 29.716751,20.703865 29.660103,20.88617 C29.660103,20.953018 29.660103,21.019287 29.660103,21.086426 C29.646751,21.086426 29.6335,21.086426 29.620148,21.086426 C29.620148,21.139671 29.620148,21.193207 29.620148,21.246452 C29.606888,21.246452 29.593536,21.246452 29.580185,21.246452 C29.580185,21.299698 29.580185,21.352654 29.580185,21.4059 C29.566925,21.4059 29.553574,21.4059 29.540321,21.4059 C29.540321,21.459435 29.540321,21.51268 29.540321,21.566216 C29.52697,21.566216 29.513718,21.566216 29.500366,21.566216 C29.500366,21.619461 29.500366,21.672707 29.500366,21.726242 C29.487015,21.726242 29.473755,21.726242 29.460403,21.726242 C29.460403,21.779488 29.460403,21.833023 29.460403,21.886269 C29.447144,21.886269 29.433792,21.886269 29.42044,21.886269 C29.42044,21.925919 29.42044,21.96643 29.42044,22.006363 C29.407188,22.006363 29.393837,22.006363 29.380585,22.006363 C29.380585,22.046295 29.380585,22.086525 29.380585,22.126457 C29.367233,22.126457 29.353973,22.126457 29.340622,22.126457 C29.340622,22.16639 29.340622,22.20633 29.340622,22.246552 C29.32727,22.246552 29.31401,22.246552 29.30066,22.246552 C29.287407,22.33973 29.274055,22.433197 29.260704,22.526382 C29.247452,22.526382 29.2341,22.526382 29.22084,22.526382 C29.22084,22.553001 29.22084,22.579628 29.22084,22.606537 C29.207489,22.606537 29.19423,22.606537 29.180878,22.606537 C29.154274,22.726341 29.12767,22.846436 29.100967,22.96653 C29.087708,22.96653 29.074356,22.96653 29.061096,22.96653 C29.061096,22.993149 29.061096,23.020065 29.061096,23.046684 C29.047745,23.046684 29.034492,23.046684 29.021141,23.046684 C29.021141,23.086334 29.021141,23.126556 29.021141,23.166489 C29.00779,23.166489 28.994537,23.166489 28.981186,23.166489 C28.967926,23.233047 28.954575,23.299896 28.941223,23.366165 C28.927963,23.366165 28.914612,23.366165 28.90136,23.366165 C28.90136,23.393074 28.90136,23.4197 28.90136,23.44632 C28.888008,23.44632 28.874756,23.44632 28.861404,23.44632 C28.861404,23.486542 28.861404,23.526482 28.861404,23.566704 C28.848053,23.566704 28.834793,23.566704 28.821442,23.566704 C28.79483,23.646576 28.768227,23.72673 28.741623,23.806313 C28.728271,23.806313 28.715012,23.806313 28.70166,23.806313 C28.70166,23.832932 28.70166,23.859558 28.70166,23.886177 C28.688309,23.886177 28.675049,23.886177 28.661697,23.886177 C28.661697,23.926697 28.661697,23.966629 28.661697,24.006561 C28.648445,24.006561 28.635094,24.006561 28.621841,24.006561 C28.595139,24.086723 28.568527,24.166298 28.541916,24.24646 C28.528564,24.24646 28.515312,24.24646 28.50196,24.24646 C28.50196,24.273079 28.50196,24.299706 28.50196,24.326614 C28.488708,24.326614 28.475357,24.326614 28.462097,24.326614 C28.435394,24.406487 28.408783,24.48664 28.38218,24.566513 C28.355576,24.579826 28.328964,24.59343 28.302353,24.606735 C28.302353,24.633362 28.302353,24.65998 28.302353,24.686607 C28.289001,24.686607 28.27565,24.686607 28.262398,24.686607 C28.262398,24.713226 28.262398,24.740143 28.262398,24.766762 C28.249046,24.766762 28.235794,24.766762 28.222443,24.766762 C28.222443,24.793388 28.222443,24.820007 28.222443,24.846634 C28.209091,24.846634 28.195831,24.846634 28.18248,24.846634 C28.18248,24.873543 28.18248,24.90017 28.18248,24.926506 C28.155869,24.939812 28.129265,24.953125 28.102661,24.966438 C28.07605,25.046593 28.049347,25.126755 28.022736,25.206627 C27.996132,25.219933 27.969528,25.233246 27.942917,25.24685 C27.942917,25.273468 27.942917,25.300095 27.942917,25.326424 C27.916306,25.340027 27.889603,25.35305 27.862999,25.366653 C27.849747,25.420189 27.836395,25.473434 27.823135,25.52668 C27.796432,25.539993 27.769821,25.553299 27.743217,25.566612 C27.743217,25.593239 27.743217,25.619858 27.743217,25.646774 C27.716614,25.66008 27.690002,25.673393 27.663391,25.686417 C27.663391,25.713043 27.663391,25.739662 27.663391,25.766571 C27.636688,25.780174 27.610085,25.793198 27.58348,25.8068 C27.58348,25.83342 27.58348,25.860046 27.58348,25.886665 C27.57022,25.886665 27.55687,25.886665 27.543518,25.886665 C27.530258,25.926605 27.516907,25.966827 27.503654,26.00676 C27.476952,26.020363 27.450348,26.033676 27.423737,26.046982 C27.423737,26.073608 27.423737,26.100227 27.423737,26.126564 C27.383774,26.153763 27.343918,26.1801 27.303955,26.206726 C27.303955,26.233345 27.303955,26.259972 27.303955,26.28688 C27.263992,26.313507 27.224037,26.340126 27.184174,26.366753 C27.184174,26.393372 27.184174,26.420288 27.184174,26.446907 C27.14421,26.473534 27.104256,26.500153 27.0643,26.52678 C27.0643,26.553688 27.0643,26.580315 27.0643,26.606934 C27.011078,26.646873 26.95787,26.687096 26.904556,26.726738 C26.904556,26.753365 26.904556,26.779984 26.904556,26.8069 C26.851341,26.847122 26.798126,26.886765 26.744812,26.926704 C26.427338,27.368874 26.081436,27.67157 25.70655,28.04718 C25.573418,28.193611 25.440285,28.340614 25.307251,28.487038 C25.280548,28.487038 25.253937,28.487038 25.227325,28.487038 C25.160767,28.5672 25.094193,28.647072 25.027634,28.727226 C25.001022,28.727226 24.974411,28.727226 24.947807,28.727226 C24.894592,28.793785 24.841278,28.860634 24.78807,28.927193 C24.76146,28.927193 24.734756,28.927193 24.708145,28.927193 C24.66829,28.980438 24.628326,29.033684 24.588364,29.08722 C24.56176,29.08722 24.535156,29.08722 24.508545,29.08722 C24.481842,29.126862 24.45523,29.167084 24.428627,29.207024 C24.402023,29.207024 24.375412,29.207024 24.3488,29.207024 C24.322098,29.247246 24.295494,29.286888 24.26889,29.3274 C24.24228,29.3274 24.215668,29.3274 24.189064,29.3274 C24.162361,29.36705 24.135757,29.406982 24.109146,29.447205 C24.082535,29.447205 24.055931,29.447205 24.029327,29.447205 C24.015976,29.473831 24.002625,29.50045 23.989365,29.527077 C23.949402,29.54039 23.909447,29.553696 23.869583,29.567009 C23.869583,29.580612 23.869583,29.593925 23.869583,29.607231 C23.84288,29.607231 23.816269,29.607231 23.789665,29.607231 C23.776413,29.633858 23.763062,29.660477 23.74971,29.686813 C23.723099,29.686813 23.696487,29.686813 23.669884,29.686813 C23.656532,29.713722 23.64328,29.740349 23.629929,29.766968 C23.603317,29.766968 23.576706,29.766968 23.550102,29.766968 C23.53675,29.793594 23.5234,29.82022 23.510147,29.84713 C23.456924,29.860733 23.403618,29.873756 23.350403,29.887352 C23.337051,29.913979 23.323792,29.940598 23.31044,29.967514 C23.270485,29.980827 23.230621,29.994133 23.190659,30.007446 C23.190659,30.02076 23.190659,30.034073 23.190659,30.047379 C23.164055,30.047379 23.137451,30.047379 23.110748,30.047379 C23.110748,30.060692 23.110748,30.074005 23.110748,30.087318 C23.084137,30.087318 23.057526,30.087318 23.030922,30.087318 C23.030922,30.100914 23.030922,30.114227 23.030922,30.12754 C23.004318,30.12754 22.977707,30.12754 22.951004,30.12754 C22.937744,30.15387 22.924393,30.180496 22.91114,30.207123 C22.884537,30.207123 22.857834,30.207123 22.831223,30.207123 C22.831223,30.220718 22.831223,30.234032 22.831223,30.247635 C22.804611,30.247635 22.778008,30.247635 22.751404,30.247635 C22.751404,30.260658 22.751404,30.274254 22.751404,30.287277 C22.724792,30.287277 22.69809,30.287277 22.671478,30.287277 C22.671478,30.30088 22.671478,30.313904 22.671478,30.32721 C22.644875,30.32721 22.61827,30.32721 22.59166,30.32721 C22.578308,30.354126 22.565048,30.380745 22.551697,30.407372 C22.471878,30.43399 22.39196,30.460617 22.312134,30.487526 C22.312134,30.50084 22.312134,30.513863 22.312134,30.527466 C22.28543,30.527466 22.258827,30.527466 22.232224,30.527466 C22.232224,30.54049 22.232224,30.554085 22.232224,30.567108 C22.152397,30.593735 22.07248,30.620644 21.99266,30.64727 C21.99266,30.660866 21.99266,30.67389 21.99266,30.687492 C21.952698,30.687492 21.912735,30.687492 21.87278,30.687492 C21.87278,30.700516 21.87278,30.714111 21.87278,30.727135 C21.846176,30.727135 21.819565,30.727135 21.792953,30.727135 C21.792953,30.740738 21.792953,30.754051 21.792953,30.767647 C21.713043,30.794273 21.633217,30.820892 21.553299,30.847519 C21.553299,30.860542 21.553299,30.874138 21.553299,30.887451 C21.513435,30.887451 21.47348,30.887451 21.433517,30.887451 C21.433517,30.901054 21.433517,30.914078 21.433517,30.927101 C21.406906,30.927101 21.380302,30.927101 21.353699,30.927101 C21.353699,30.940697 21.353699,30.95372 21.353699,30.967323 C21.313736,30.967323 21.273773,30.967323 21.233818,30.967323 C21.233818,30.980347 21.233818,30.993942 21.233818,31.007256 C21.207214,31.007256 21.180603,31.007256 21.153992,31.007256 C21.153992,31.020859 21.153992,31.033882 21.153992,31.047478 C21.114037,31.047478 21.074081,31.047478 21.03421,31.047478 C21.03421,31.060501 21.03421,31.074104 21.03421,31.087128 C21.007507,31.087128 20.980904,31.087128 20.9543,31.087128 C20.9543,31.100723 20.9543,31.113747 20.9543,31.12735 C20.834518,31.154259 20.714737,31.180885 20.594856,31.207504 C20.594856,31.220528 20.594856,31.23413 20.594856,31.247154 C20.568253,31.247154 20.541641,31.247154 20.51503,31.247154 C20.51503,31.260757 20.51503,31.274063 20.51503,31.287666 C20.42186,31.30069 20.32869,31.314293 20.235512,31.327309 C20.235512,31.340622 20.235512,31.353935 20.235512,31.367249 C20.195557,31.367249 20.155594,31.367249 20.115631,31.367249 C20.115631,31.380554 20.115631,31.393867 20.115631,31.40747 C20.075775,31.40747 20.035812,31.40747 19.99585,31.40747 C19.99585,31.420784 19.99585,31.43409 19.99585,31.447403 C19.955894,31.447403 19.91603,31.447403 19.876068,31.447403 C19.876068,31.460716 19.876068,31.47403 19.876068,31.487335 C19.82286,31.487335 19.769547,31.487335 19.716331,31.487335 C19.716331,31.500648 19.716331,31.513962 19.716331,31.527275 C19.663116,31.527275 19.609802,31.527275 19.556595,31.527275 C19.556595,31.54087 19.556595,31.554184 19.556595,31.567497 C19.503372,31.567497 19.450066,31.567497 19.39685,31.567497 C19.39685,31.58081 19.39685,31.594124 19.39685,31.60743 C19.343636,31.60743 19.290329,31.60743 19.237106,31.60743 C19.237106,31.620743 19.237106,31.634056 19.237106,31.64737 C19.183899,31.64737 19.130585,31.64737 19.07737,31.64737 C19.07737,31.660675 19.07737,31.674278 19.07737,31.687592 C19.010803,31.687592 18.944237,31.687592 18.87767,31.687592 C18.87767,31.700615 18.87767,31.71421 18.87767,31.727234 C18.811104,31.727234 18.744537,31.727234 18.67807,31.727234 C18.67807,31.740837 18.67807,31.75386 18.67807,31.767456 C18.611496,31.767456 18.544937,31.767456 18.478363,31.767456 C18.478363,31.78048 18.478363,31.794083 18.478363,31.807396 C18.398453,31.807396 18.318626,31.807396 18.238708,31.807396 C18.238708,31.820992 18.238708,31.834015 18.238708,31.847618 C18.05236,31.860641 17.866013,31.874237 17.679665,31.88726 C17.679665,31.900864 17.679665,31.914177 17.679665,31.92749 C17.147232,31.9544 16.6147,31.981026 16.08226,32.007645 C15.616394,31.994331 15.150421,31.981026 14.684555,31.967712 C14.684555,31.9544 14.684555,31.940796 14.684555,31.92749 C14.564774,31.92749 14.4449005,31.92749 14.325119,31.92749 C14.325119,31.914177 14.325119,31.900864 14.325119,31.88726 C14.218689,31.88726 14.11216,31.88726 14.0056305,31.88726 C13.38002,31.75386 12.754318,31.620743 12.128708,31.487335 C11.177704,31.145294 10.205048,30.826393 9.413116,30.32721 C9.386513,30.32721 9.359909,30.32721 9.333298,30.32721 C9.333298,30.313904 9.333298,30.30088 9.333298,30.287277 C9.306686,30.287277 9.2799835,30.287277 9.25338,30.287277 C9.25338,30.274254 9.25338,30.260658 9.25338,30.247635 C9.226776,30.247635 9.200165,30.247635 9.173553,30.247635 C9.173553,30.234032 9.173553,30.220718 9.173553,30.207123 C9.14695,30.207123 9.120247,30.207123 9.093643,30.207123 C9.080383,30.180496 9.067032,30.15387 9.053772,30.12754 C8.973862,30.100914 8.893936,30.074005 8.814117,30.047379 C8.814117,30.034073 8.814117,30.02076 8.814117,30.007446 C8.774155,29.994133 8.734299,29.980827 8.694336,29.967514 C8.6809845,29.940598 8.667725,29.913979 8.654373,29.887352 C8.601166,29.873756 8.547852,29.860733 8.494637,29.84713 C8.494637,29.834106 8.494637,29.82022 8.494637,29.807198 C8.454681,29.793594 8.41481,29.780571 8.374855,29.766968 C8.361504,29.740349 8.348251,29.713722 8.3349,29.686813 C8.308289,29.686813 8.281677,29.686813 8.255074,29.686813 C8.241722,29.660477 8.228371,29.633858 8.215118,29.607231 C8.188507,29.607231 8.161896,29.607231 8.135193,29.607231 C8.135193,29.593925 8.135193,29.580612 8.135193,29.567009 C8.095337,29.553696 8.055374,29.54039 8.015411,29.527077 C8.002159,29.50045 7.9888077,29.473831 7.975456,29.447205 C7.9488525,29.447205 7.922241,29.447205 7.89563,29.447205 C7.869026,29.406982 7.8424225,29.36705 7.8157196,29.3274 C7.7891083,29.3274 7.762497,29.3274 7.7358932,29.3274 C7.7092896,29.286888 7.682678,29.247246 7.6559753,29.207024 C7.629364,29.207024 7.6027603,29.207024 7.5761566,29.207024 C7.5495453,29.167084 7.522934,29.126862 7.496231,29.08722 C7.4696274,29.08722 7.4430237,29.08722 7.4164124,29.08722 C7.3764496,29.033684 7.3364944,28.980438 7.296631,28.927193 C7.2700195,28.927193 7.2433167,28.927193 7.216713,28.927193 C7.1901093,28.887253 7.163498,28.84703 7.1368866,28.807388 C7.123535,28.807388 7.110283,28.807388 7.0969315,28.807388 C7.08358,28.780472 7.0703278,28.753853 7.0569763,28.727226 C7.030365,28.727226 7.0037537,28.727226 6.97715,28.727226 C6.9105835,28.647072 6.844017,28.5672 6.7774506,28.487038 C6.750839,28.487038 6.7242355,28.487038 6.697632,28.487038 C6.5378876,28.313995 6.3780518,28.140656 6.2184067,27.967026 C5.992096,27.753464 5.765793,27.540192 5.5394897,27.326912 C5.5394897,27.300293 5.5394897,27.273666 5.5394897,27.247047 C5.459564,27.180199 5.3797455,27.11364 5.2998276,27.046791 C5.2998276,27.020172 5.2998276,26.993546 5.2998276,26.966927 C5.2333527,26.913391 5.1666946,26.860146 5.1002197,26.8069 C5.1002197,26.779984 5.1002197,26.753365 5.1002197,26.726738 C5.046913,26.687096 4.993698,26.646873 4.940483,26.606934 C4.940483,26.580315 4.940483,26.553688 4.940483,26.52678 C4.900528,26.500153 4.860565,26.473534 4.8206024,26.446907 C4.8206024,26.420288 4.8206024,26.393372 4.8206024,26.366753 C4.7807465,26.340126 4.7407837,26.313507 4.700821,26.28688 C4.700821,26.259972 4.700821,26.233345 4.700821,26.206726 C4.660866,26.1801 4.621002,26.153763 4.5810394,26.126564 C4.5810394,26.100227 4.5810394,26.073608 4.5810394,26.046982 C4.5544357,26.033676 4.527832,26.020363 4.501129,26.00676 C4.4878693,25.966827 4.474518,25.926605 4.461258,25.886665 C4.4479065,25.886665 4.434654,25.886665 4.421303,25.886665 C4.421303,25.860046 4.421303,25.83342 4.421303,25.8068 C4.394699,25.793198 4.368088,25.780174 4.341385,25.766571 C4.341385,25.739662 4.341385,25.713043 4.341385,25.686417 C4.3147736,25.673393 4.28817,25.66008 4.261566,25.646774 C4.261566,25.619858 4.261566,25.593239 4.261566,25.566612 C4.234955,25.553299 4.2083435,25.539993 4.1816406,25.52668 C4.1683884,25.473434 4.155037,25.420189 4.1417847,25.366653 C4.1151733,25.35305 4.0884705,25.340027 4.061859,25.326424 C4.048607,25.286781 4.0352554,25.24685 4.021904,25.206627 C4.0086517,25.206627 3.9953003,25.206627 3.9820404,25.206627 C3.955429,25.126755 3.9287262,25.046593 3.9021225,24.966438 C3.8755188,24.953125 3.8489075,24.939812 3.8222961,24.926506 C3.8222961,24.90017 3.8222961,24.873543 3.8222961,24.846634 C3.8089447,24.846634 3.7956924,24.846634 3.782341,24.846634 C3.782341,24.820007 3.782341,24.793388 3.782341,24.766762 C3.7689896,24.766762 3.7557373,24.766762 3.7423859,24.766762 C3.7423859,24.740143 3.7423859,24.713226 3.7423859,24.686607 C3.729126,24.686607 3.7157745,24.686607 3.702423,24.686607 C3.702423,24.65998 3.702423,24.633362 3.702423,24.606735 C3.205841,23.813835 2.882553,22.839493 2.5443726,21.886269 C2.531021,21.779488 2.5177689,21.672707 2.5044174,21.566216 C2.4911652,21.566216 2.4778137,21.566216 2.4644623,21.566216 C2.4644623,21.51268 2.4644623,21.459435 2.4644623,21.4059 C2.4512024,21.4059 2.437851,21.4059 2.424591,21.4059 C2.424591,21.352654 2.424591,21.299698 2.424591,21.246452 C2.4112396,21.246452 2.3978882,21.246452 2.384636,21.246452 C2.384636,21.193207 2.384636,21.139671 2.384636,21.086426 C2.3712845,21.086426 2.3580322,21.086426 2.3446808,21.086426 C2.3446808,21.019287 2.3446808,20.953018 2.3446808,20.88617 C2.331421,20.88617 2.3180695,20.88617 2.304718,20.88617 C2.2914581,20.75277 2.2781067,20.619362 2.2648544,20.485962 C2.251503,20.485962 2.2381516,20.485962 2.2248993,20.485962 C2.2248993,20.40609 2.2248993,20.325928 2.2248993,20.246063 C2.2115479,20.246063 2.198288,20.246063 2.1849365,20.246063 C2.1849365,20.152878 2.1849365,20.05941 2.1849365,19.965942 C2.1716766,19.965942 2.1583252,19.965942 2.1449738,19.965942 C2.1317215,19.739357 2.11837,19.512772 2.1051178,19.286186 C2.0917664,19.286186 2.078415,19.286186 2.065155,19.286186 C2.065155,19.112556 2.065155,18.939507 2.065155,18.765884 C1.980278,18.457397 1.9782715,17.553665 2.065155,17.246056 C2.065155,17.072136 2.065155,16.899086 2.065155,16.725746 C2.078415,16.725746 2.0917664,16.725746 2.1051178,16.725746 C2.11837,16.49916 2.1317215,16.271996 2.1449738,16.0457 C2.1583252,16.0457 2.1716766,16.0457 2.1849365,16.0457 C2.1849365,15.952522 2.1849365,15.858765 2.1849365,15.765583 C2.2404404,15.577484 2.288025,15.307781 2.3446808,15.125763 C2.3446808,15.058628 2.3446808,14.992359 2.3446808,14.92551 C2.3580322,14.92551 2.3712845,14.92551 2.384636,14.92551 C2.384636,14.872265 2.384636,14.818729 2.384636,14.765484 C2.3978882,14.765484 2.4112396,14.765484 2.424591,14.765484 C2.424591,14.712238 2.424591,14.658703 2.424591,14.605457 C2.437851,14.605457 2.4512024,14.605457 2.4644623,14.605457 C2.4644623,14.551922 2.4644623,14.498676 2.4644623,14.445141 C2.4778137,14.445141 2.4911652,14.445141 2.5044174,14.445141 C2.5044174,14.391895 2.5044174,14.338646 2.5044174,14.28511 C2.5177689,14.28511 2.531021,14.28511 2.5443726,14.28511 C2.5443726,14.231865 2.5443726,14.178329 2.5443726,14.125374 C2.5576324,14.125374 2.570984,14.125374 2.5843353,14.125374 C2.5843353,14.085438 2.5843353,14.045216 2.5843353,14.00528 C2.5975952,14.00528 2.6109467,14.00528 2.624199,14.00528 C2.624199,13.965637 2.624199,13.925121 2.624199,13.885479 C2.6375504,13.885479 2.6509018,13.885479 2.664154,13.885479 C2.664154,13.845253 2.664154,13.805607 2.664154,13.765095 C2.6775055,13.765095 2.6907654,13.765095 2.7041168,13.765095 C2.7041168,13.712139 2.7041168,13.658604 2.7041168,13.605358 C2.7173767,13.605358 2.7307281,13.605358 2.7440796,13.605358 C2.7440796,13.565422 2.7440796,13.5252 2.7440796,13.485264 C2.7573318,13.485264 2.7706833,13.485264 2.7839355,13.485264 C2.7839355,13.458641 2.7839355,13.432018 2.7839355,13.405106 C2.797287,13.405106 2.8105469,13.405106 2.8238983,13.405106 C2.8505096,13.285301 2.8771133,13.165501 2.9038162,13.045116 C2.9170685,13.045116 2.93042,13.045116 2.9436798,13.045116 C2.9436798,13.018494 2.9436798,12.991581 2.9436798,12.964958 C2.9570312,12.964958 2.9702911,12.964958 2.9836426,12.964958 C2.9836426,12.925312 2.9836426,12.88538 2.9836426,12.845154 C2.996994,12.845154 3.0102463,12.845154 3.0235977,12.845154 C3.0235977,12.818531 3.0235977,12.791908 3.0235977,12.7652855 C3.03685,12.7652855 3.0502014,12.7652855 3.0635529,12.7652855 C3.0635529,12.725063 3.0635529,12.685127 3.0635529,12.645191 C3.0768127,12.645191 3.0901642,12.645191 3.103424,12.645191 C3.103424,12.618568 3.103424,12.591656 3.103424,12.565033 C3.1167755,12.565033 3.1300278,12.565033 3.1433792,12.565033 C3.1433792,12.525391 3.1433792,12.485165 3.1433792,12.445232 C3.1567307,12.445232 3.169983,12.445232 3.1833344,12.445232 C3.2099457,12.36536 3.236557,12.285202 3.2631607,12.205044 C3.2765121,12.205044 3.2897644,12.205044 3.3031158,12.205044 C3.3031158,12.178421 3.3031158,12.151798 3.3031158,12.125175 C3.3164673,12.125175 3.3297272,12.125175 3.3430786,12.125175 C3.3430786,12.085239 3.3430786,12.045017 3.3430786,12.005371 C3.3563385,12.005371 3.36969,12.005371 3.3830414,12.005371 C3.409645,11.925213 3.4362488,11.845345 3.46286,11.765186 C3.4762115,11.765186 3.4894714,11.765186 3.5028229,11.765186 C3.5028229,11.738564 3.5028229,11.711941 3.5028229,11.685028 C3.5160751,11.685028 3.5294266,11.685028 3.542778,11.685028 C3.5693817,11.60516 3.595993,11.525002 3.6226044,11.445133 C3.649208,11.43182 3.6758118,11.4182205 3.702423,11.405197 C3.702423,11.378284 3.702423,11.351662 3.702423,11.325039 C3.7157745,11.325039 3.729126,11.325039 3.7423859,11.325039 C3.7423859,11.298416 3.7423859,11.271503 3.7423859,11.244881 C3.7557373,11.244881 3.7689896,11.244881 3.782341,11.244881 C3.782341,11.218258 3.782341,11.191635 3.782341,11.165012 C3.7956924,11.165012 3.8089447,11.165012 3.8222961,11.165012 C3.8222961,11.1381 3.8222961,11.111477 3.8222961,11.084854 C3.8489075,11.071831 3.8755188,11.058231 3.9021225,11.045208 C3.9287262,10.96505 3.955429,10.8848915 3.9820404,10.805023 C3.9953003,10.805023 4.0086517,10.805023 4.021904,10.805023 C4.0352554,10.765087 4.048607,10.724865 4.061859,10.684929 C4.0884705,10.671616 4.1151733,10.658306 4.1417847,10.644993 C4.155037,10.591457 4.1683884,10.538502 4.1816406,10.484966 C4.194992,10.484966 4.2083435,10.484966 4.2216034,10.484966 C4.234955,10.445034 4.2482147,10.405098 4.261566,10.364872 C4.28817,10.3515625 4.3147736,10.338249 4.341385,10.32494 C4.341385,10.298317 4.341385,10.271694 4.341385,10.2447815 C4.3547363,10.2447815 4.368088,10.2447815 4.3813477,10.2447815 C4.394699,10.204845 4.4079514,10.164913 4.421303,10.125267 C4.4479065,10.111378 4.474518,10.098354 4.501129,10.084755 C4.501129,10.058132 4.501129,10.031506 4.501129,10.004883 C4.5410843,9.977974 4.5810394,9.951347 4.621002,9.924725 C4.621002,9.898102 4.621002,9.871479 4.621002,9.844856 C4.6476135,9.831547 4.674217,9.818523 4.700821,9.804924 C4.700821,9.778301 4.700821,9.751675 4.700821,9.724766 C4.7407837,9.698139 4.7807465,9.671516 4.8206024,9.644894 C4.8206024,9.618271 4.8206024,9.591358 4.8206024,9.564735 C4.860565,9.538113 4.900528,9.51149 4.940483,9.484867 C4.940483,9.457954 4.940483,9.431332 4.940483,9.404709 C4.993698,9.364773 5.046913,9.324841 5.1002197,9.284615 C5.1002197,9.257992 5.1002197,9.231369 5.1002197,9.204746 C5.140091,9.177834 5.180046,9.151211 5.220001,9.124588 C5.220001,9.111568 5.220001,9.097965 5.220001,9.084942 C5.2466125,9.071342 5.273224,9.058033 5.2998276,9.04443 C5.2998276,9.017807 5.2998276,8.991184 5.2998276,8.964851 C5.3797455,8.898003 5.459564,8.831448 5.5394897,8.764599 C5.5394897,8.737976 5.5394897,8.711353 5.5394897,8.684731 C5.73909,8.498081 5.9388885,8.311428 6.138489,8.124489 C6.3248367,7.924816 6.5112762,7.7248535 6.697632,7.524605 C6.7242355,7.524605 6.750839,7.524605 6.7774506,7.524605 C6.844017,7.4444466 6.9105835,7.3648643 6.97715,7.284706 C7.0037537,7.284706 7.030365,7.284706 7.0569763,7.284706 C7.110283,7.217861 7.163498,7.1513023 7.216713,7.0844574 C7.2433167,7.0844574 7.2700195,7.0844574 7.296631,7.0844574 C7.3364944,7.030922 7.3764496,6.9779625 7.4164124,6.924427 C7.4430237,6.924427 7.4696274,6.924427 7.496231,6.924427 C7.522934,6.884495 7.5495453,6.8445587 7.5761566,6.8043365 C7.6027603,6.8043365 7.629364,6.8043365 7.6559753,6.8043365 C7.682678,6.7646904 7.7092896,6.724468 7.7358932,6.684532 C7.762497,6.684532 7.7891083,6.684532 7.8157196,6.684532 C7.829071,6.6579094 7.8424225,6.6312866 7.8556747,6.604664 C7.8822784,6.604664 7.9089813,6.604664 7.9355927,6.604664 C7.962204,6.564728 7.9888077,6.5245056 8.015411,6.4845695 C8.042023,6.4845695 8.068726,6.4845695 8.095337,6.4845695 C8.108589,6.457947 8.121941,6.431034 8.135193,6.4044113 C8.161896,6.4044113 8.188507,6.4044113 8.215118,6.4044113 C8.228371,6.3777885 8.241722,6.351166 8.255074,6.324543 C8.281677,6.324543 8.308289,6.324543 8.3349,6.324543 C8.348251,6.2976303 8.361504,6.2710075 8.374855,6.2446747 C8.401459,6.2446747 8.42807,6.2446747 8.454681,6.2446747 C8.468033,6.218052 8.481384,6.191429 8.494637,6.1645164 C8.547852,6.151203 8.601166,6.1378937 8.654373,6.1245804 C8.667725,6.0979576 8.6809845,6.071335 8.694336,6.044712 C8.734299,6.031109 8.774155,6.0177994 8.814117,6.004486 C8.814117,5.9911766 8.814117,5.9778633 8.814117,5.964554 C8.840729,5.964554 8.867332,5.964554 8.894035,5.964554 C8.894035,5.9512405 8.894035,5.937931 8.894035,5.924618 C8.920639,5.924618 8.94725,5.924618 8.973862,5.924618 C8.973862,5.9110184 8.973862,5.897705 8.973862,5.8843956 C9.000465,5.8843956 9.027069,5.8843956 9.053772,5.8843956 C9.067032,5.857773 9.080383,5.83115 9.093643,5.8045273 C9.120247,5.8045273 9.14695,5.8045273 9.173553,5.8045273 C9.173553,5.791504 9.173553,5.7776146 9.173553,5.764591 C9.200165,5.764591 9.226776,5.764591 9.25338,5.764591 C9.25338,5.750992 9.25338,5.7379684 9.25338,5.724369 C9.2799835,5.724369 9.306686,5.724369 9.333298,5.724369 C9.333298,5.7113457 9.333298,5.6977425 9.333298,5.684723 C9.359909,5.684723 9.386513,5.684723 9.413116,5.684723 C9.426468,5.6581 9.439728,5.6311874 9.453079,5.6045647 C9.479691,5.6045647 9.506294,5.6045647 9.532997,5.6045647 C9.532997,5.5909615 9.532997,5.577942 9.532997,5.5643387 C9.6128235,5.537716 9.692734,5.510803 9.77256,5.4841805 C9.77256,5.471161 9.77256,5.4575577 9.77256,5.444538 C9.852386,5.4176254 9.932297,5.3910027 10.012123,5.36409 C10.012123,5.3510666 10.012123,5.337467 10.012123,5.324444 C10.052078,5.324444 10.092041,5.324444 10.132004,5.324444 C10.132004,5.3108444 10.132004,5.297821 10.132004,5.284218 C10.1586075,5.284218 10.185211,5.284218 10.2118225,5.284218 C10.2118225,5.2711983 10.2118225,5.257595 10.2118225,5.2442856 C10.29174,5.217663 10.371567,5.19104 10.451477,5.1644173 C10.451477,5.150814 10.451477,5.1377945 10.451477,5.1241913 C10.491348,5.1241913 10.531303,5.1241913 10.571259,5.1241913 C10.571259,5.110882 10.571259,5.0972786 10.571259,5.084259 C10.59787,5.084259 10.624481,5.084259 10.651085,5.084259 C10.651085,5.070656 10.651085,5.0576363 10.651085,5.044323 C10.69104,5.044323 10.731003,5.044323 10.770966,5.044323 C10.770966,5.0310097 10.770966,5.01799 10.770966,5.004387 C10.797569,5.004387 10.824173,5.004387 10.850784,5.004387 C10.850784,4.9910774 10.850784,4.977478 10.850784,4.9644547 C10.890747,4.9644547 10.930702,4.9644547 10.970566,4.9644547 C10.970566,4.9508514 10.970566,4.937832 10.970566,4.9242287 C10.997269,4.9242287 11.02388,4.9242287 11.050484,4.9242287 C11.050484,4.911209 11.050484,4.897606 11.050484,4.8845863 C11.170265,4.8576736 11.290146,4.831051 11.409927,4.804428 C11.409927,4.790825 11.409927,4.7778053 11.409927,4.764202 C11.436531,4.764202 11.463135,4.764202 11.489746,4.764202 C11.489746,4.7511787 11.489746,4.7375793 11.489746,4.72427 C11.582916,4.7106667 11.676094,4.6976433 11.769272,4.684044 C11.769272,4.6710205 11.769272,4.657421 11.769272,4.6443977 C11.809227,4.6443977 11.849182,4.6443977 11.889145,4.6443977 C11.889145,4.6307983 11.889145,4.617775 11.889145,4.6044655 C11.9290085,4.6044655 11.968964,4.6044655 12.008926,4.6044655 C12.008926,4.5908623 12.008926,4.577263 12.008926,4.5642395 C12.048889,4.5642395 12.088745,4.5642395 12.128708,4.5642395 C12.128708,4.55093 12.128708,4.5376167 12.128708,4.5243073 C12.2352295,4.510994 12.341759,4.4976845 12.448189,4.484371 C12.448189,4.4710617 12.448189,4.4574585 12.448189,4.444149 C12.501404,4.444149 12.554718,4.444149 12.607925,4.444149 C12.607925,4.4308357 12.607925,4.4178123 12.607925,4.404213 C12.661148,4.404213 12.714455,4.404213 12.76767,4.404213 C12.76767,4.3911896 12.76767,4.37759 12.76767,4.364567 C12.820885,4.364567 12.874191,4.364567 12.927414,4.364567 C12.927414,4.3509674 12.927414,4.337654 12.927414,4.3240547 C12.993973,4.3240547 13.060547,4.3240547 13.127106,4.3240547 C13.127106,4.3110313 13.127106,4.297432 13.127106,4.2844086 C13.260147,4.270809 13.393372,4.257786 13.526413,4.2441864 C13.526413,4.231163 13.526413,4.2178535 13.526413,4.2042503 C13.606331,4.2042503 13.686157,4.2042503 13.7660675,4.2042503 C13.7660675,4.190941 13.7660675,4.1776276 13.7660675,4.164318 C13.859245,4.164318 13.952423,4.164318 14.045593,4.164318 C14.045593,4.151005 14.045593,4.1376953 14.045593,4.124382 C14.138763,4.124382 14.231941,4.124382 14.325119,4.124382 C14.325119,4.1110725 14.325119,4.0977592 14.325119,4.084446 C14.4449005,4.084446 14.564774,4.084446 14.684555,4.084446 C14.684555,4.0708466 14.684555,4.057537 14.684555,4.044224 C14.870903,4.044224 15.057251,4.044224 15.243599,4.044224 C15.551445,3.9588547 16.453812,3.957409 16.761185,4.044224 C16.947525,4.044224 17.13388,4.044224 17.32022,4.044224 C17.32022,4.057537 17.32022,4.0708466 17.32022,4.084446 C17.440002,4.084446 17.559883,4.084446 17.679665,4.084446 C17.679665,4.0977592 17.679665,4.1110725 17.679665,4.124382 C17.772842,4.124382 17.866013,4.124382 17.959183,4.124382 C17.959183,4.1376953 17.959183,4.151005 17.959183,4.164318 C18.05236,4.164318 18.145538,4.164318 18.238708,4.164318 C18.238708,4.1776276 18.238708,4.190941 18.238708,4.2042503 C18.385193,4.2178535 18.531586,4.231163 18.67807,4.2441864 C18.67807,4.257786 18.67807,4.270809 18.67807,4.2844086 C18.811104,4.297432 18.944237,4.3110313 19.07737,4.3240547 C19.07737,4.337654 19.07737,4.3509674 19.07737,4.364567 C19.183899,4.37759 19.290329,4.3911896 19.39685,4.404213 C19.39685,4.4178123 19.39685,4.4308357 19.39685,4.444149 C19.450066,4.444149 19.503372,4.444149 19.556595,4.444149 C19.556595,4.4574585 19.556595,4.4710617 19.556595,4.484371 C19.609802,4.484371 19.663116,4.484371 19.716331,4.484371 C19.716331,4.4976845 19.716331,4.510994 19.716331,4.5243073 C19.769547,4.5243073 19.82286,4.5243073 19.876068,4.5243073 C19.876068,4.5376167 19.876068,4.55093 19.876068,4.5642395 C19.91603,4.5642395 19.955894,4.5642395 19.99585,4.5642395 C19.99585,4.577263 19.99585,4.5908623 19.99585,4.6044655 C20.035812,4.6044655 20.075775,4.6044655 20.115631,4.6044655 C20.115631,4.617775 20.115631,4.6307983 20.115631,4.6443977 C20.155594,4.6443977 20.195557,4.6443977 20.235512,4.6443977 C20.235512,4.657421 20.235512,4.6710205 20.235512,4.684044 C20.288727,4.684044 20.341942,4.684044 20.395248,4.684044 C20.395248,4.6976433 20.395248,4.7106667 20.395248,4.72427 C20.43512,4.72427 20.475075,4.72427 20.51503,4.72427 C20.51503,4.7375793 20.51503,4.7511787 20.51503,4.764202 C20.581604,4.7778053 20.648163,4.790825 20.714737,4.804428 C20.714737,4.8174477 20.714737,4.831051 20.714737,4.8440704 C20.672394,4.8724327 20.53125,5.043167 20.51503,5.084259 C20.51503,5.150814 20.51503,5.217663 20.51503,5.284218 C20.501678,5.284218 20.488426,5.284218 20.475075,5.284218 C20.475075,5.337467 20.475075,5.3910027 20.475075,5.444538 C20.461823,5.444538 20.448471,5.444538 20.43512,5.444538 C20.43512,5.4977837 20.43512,5.551319 20.43512,5.6045647 C20.42186,5.6045647 20.408508,5.6045647 20.395248,5.6045647 C20.395248,5.6581 20.395248,5.7113457 20.395248,5.764591 C20.381897,5.764591 20.368546,5.764591 20.355293,5.764591 C20.355293,5.8181267 20.355293,5.8710823 20.355293,5.924618 C20.341942,5.924618 20.32869,5.924618 20.315338,5.924618 C20.315338,6.64431 20.315338,7.3648643 20.315338,8.084843 ZM23.74971,14.725548 C23.789665,14.858955 23.82962,14.992359 23.869583,15.125763 C23.882843,15.125763 23.896194,15.125763 23.909447,15.125763 C23.909447,15.165409 23.909447,15.205631 23.909447,15.245567 C23.922798,15.245567 23.93615,15.245567 23.949402,15.245567 C23.949402,15.2857895 23.949402,15.325436 23.949402,15.365368 C23.962753,15.365368 23.976013,15.365368 23.989365,15.365368 C23.989365,15.405594 23.989365,15.44553 23.989365,15.485462 C24.002625,15.485462 24.015976,15.485462 24.029327,15.485462 C24.04258,15.578934 24.055931,15.672401 24.069183,15.765583 C24.082535,15.765583 24.095886,15.765583 24.109146,15.765583 C24.189064,16.179108 24.26889,16.592346 24.3488,17.005867 C24.3488,17.152298 24.3488,17.299301 24.3488,17.445724 C24.36206,17.445724 24.375412,17.445724 24.388672,17.445724 C24.388672,17.64569 24.388672,17.84565 24.388672,18.045898 C24.388672,18.572289 24.353477,19.114876 24.228928,19.525795 C24.215668,19.659195 24.202316,19.792603 24.189064,19.92601 C24.175713,19.92601 24.162361,19.92601 24.149109,19.92601 C24.135757,20.032791 24.122498,20.139572 24.109146,20.246063 C24.095886,20.246063 24.082535,20.246063 24.069183,20.246063 C24.055931,20.33953 24.04258,20.432709 24.029327,20.526474 C24.015976,20.526474 24.002625,20.526474 23.989365,20.526474 C23.989365,20.566116 23.989365,20.606049 23.989365,20.646278 C23.976013,20.646278 23.962753,20.646278 23.949402,20.646278 C23.949402,20.68621 23.949402,20.726143 23.949402,20.766083 C23.93615,20.766083 23.922798,20.766083 23.909447,20.766083 C23.909447,20.806305 23.909447,20.846237 23.909447,20.88617 C23.896194,20.88617 23.882843,20.88617 23.869583,20.88617 C23.869583,20.913086 23.869583,20.939705 23.869583,20.966042 C23.856232,20.966042 23.84288,20.966042 23.82962,20.966042 C23.82962,21.006264 23.82962,21.046196 23.82962,21.086426 C23.816269,21.086426 23.803017,21.086426 23.789665,21.086426 C23.789665,21.113045 23.789665,21.139671 23.789665,21.16629 C23.776413,21.16629 23.763062,21.16629 23.74971,21.16629 C23.74971,21.20623 23.74971,21.246452 23.74971,21.286095 C23.73645,21.286095 23.723099,21.286095 23.709839,21.286095 C23.696487,21.33963 23.683136,21.392876 23.669884,21.446411 C23.656532,21.446411 23.64328,21.446411 23.629929,21.446411 C23.629929,21.473038 23.629929,21.499657 23.629929,21.526283 C23.616669,21.526283 23.603317,21.526283 23.589966,21.526283 C23.589966,21.566216 23.589966,21.606438 23.589966,21.646088 C23.576706,21.646088 23.563354,21.646088 23.550102,21.646088 C23.53675,21.699623 23.5234,21.752869 23.510147,21.806114 C23.496796,21.806114 23.483536,21.806114 23.470184,21.806114 C23.456924,21.85965 23.443573,21.912895 23.430222,21.96643 C23.403618,21.979744 23.377014,21.99305 23.350403,22.006363 C23.323792,22.086525 23.297188,22.16639 23.270485,22.246552 C23.243881,22.259575 23.21727,22.27317 23.190659,22.286194 C23.177307,22.33973 23.164055,22.392975 23.150703,22.44622 C23.137451,22.44622 23.1241,22.44622 23.110748,22.44622 C23.097488,22.486732 23.084137,22.526382 23.070877,22.566315 C23.044273,22.579628 23.01757,22.592941 22.990967,22.606537 C22.990967,22.633163 22.990967,22.659782 22.990967,22.686409 C22.977707,22.686409 22.964355,22.686409 22.951004,22.686409 C22.937744,22.726341 22.924393,22.766563 22.91114,22.806503 C22.884537,22.819809 22.857834,22.833122 22.831223,22.846436 C22.831223,22.873344 22.831223,22.899971 22.831223,22.926598 C22.791359,22.952927 22.751404,22.979553 22.711441,23.006462 C22.711441,23.033089 22.711441,23.059708 22.711441,23.086334 C22.671478,23.112953 22.631523,23.13987 22.59166,23.166489 C22.59166,23.193115 22.59166,23.219734 22.59166,23.24636 C22.525093,23.299896 22.458527,23.353142 22.39196,23.406677 C22.39196,23.433296 22.39196,23.459923 22.39196,23.486542 C22.258827,23.606346 22.125694,23.72673 21.99266,23.846535 C21.819565,24.033188 21.64647,24.219833 21.47348,24.406487 C21.446869,24.406487 21.420166,24.406487 21.393555,24.406487 C21.340347,24.473625 21.287125,24.539894 21.233818,24.606735 C21.207214,24.606735 21.180603,24.606735 21.153992,24.606735 C21.127388,24.646675 21.100685,24.686607 21.074081,24.72683 C21.04747,24.72683 21.020859,24.72683 20.994255,24.72683 C20.967651,24.766762 20.94104,24.806702 20.914337,24.846634 C20.887726,24.846634 20.861122,24.846634 20.834518,24.846634 C20.821167,24.873543 20.807907,24.90017 20.794556,24.926506 C20.754593,24.939812 20.714737,24.953125 20.674774,24.966438 C20.674774,24.980042 20.674774,24.993347 20.674774,25.00666 C20.648163,25.00666 20.62156,25.00666 20.594856,25.00666 C20.581604,25.033287 20.568253,25.059906 20.554993,25.086533 C20.51503,25.099838 20.475075,25.113441 20.43512,25.126755 C20.43512,25.140068 20.43512,25.153374 20.43512,25.166687 C20.381897,25.18 20.32869,25.193314 20.275375,25.206627 C20.262115,25.233246 20.248764,25.260162 20.235512,25.286781 C20.155594,25.313408 20.075775,25.340027 19.99585,25.366653 C19.982597,25.393562 19.969246,25.420189 19.955894,25.446808 C19.90268,25.459831 19.849464,25.473434 19.796158,25.486458 C19.796158,25.500053 19.796158,25.513367 19.796158,25.52668 C19.742935,25.539993 19.689728,25.553299 19.636414,25.566612 C19.636414,25.579926 19.636414,25.593239 19.636414,25.606544 C19.59655,25.606544 19.556595,25.606544 19.516632,25.606544 C19.516632,25.619858 19.516632,25.633461 19.516632,25.646774 C19.49002,25.646774 19.463417,25.646774 19.436813,25.646774 C19.436813,25.66008 19.436813,25.673393 19.436813,25.686417 C19.3835,25.70002 19.330284,25.713043 19.27707,25.726639 C19.27707,25.739662 19.27707,25.753265 19.27707,25.766571 C19.237106,25.766571 19.197151,25.766571 19.157288,25.766571 C19.157288,25.780174 19.157288,25.793198 19.157288,25.8068 C19.130585,25.8068 19.103973,25.8068 19.07737,25.8068 C19.07737,25.819824 19.07737,25.83342 19.07737,25.846443 C19.010803,25.860046 18.944237,25.87307 18.87767,25.886665 C18.87767,25.899979 18.87767,25.913582 18.87767,25.926605 C18.837807,25.926605 18.797852,25.926605 18.757889,25.926605 C18.757889,25.9402 18.757889,25.953514 18.757889,25.966827 C18.717926,25.966827 18.67807,25.966827 18.638107,25.966827 C18.638107,25.98014 18.638107,25.993446 18.638107,26.00676 C18.598145,26.00676 18.55819,26.00676 18.518326,26.00676 C18.518326,26.020363 18.518326,26.033676 18.518326,26.046982 C18.425156,26.060295 18.331879,26.073608 18.238708,26.086922 C18.238708,26.100227 18.238708,26.11354 18.238708,26.126564 C18.132278,26.140167 18.025757,26.153763 17.919228,26.167076 C17.919228,26.1801 17.919228,26.193703 17.919228,26.206726 C17.852753,26.206726 17.786095,26.206726 17.71962,26.206726 C17.71962,26.220322 17.71962,26.233345 17.71962,26.246948 C17.65306,26.246948 17.586487,26.246948 17.519928,26.246948 C17.519928,26.259972 17.519928,26.273567 17.519928,26.28688 C17.440002,26.28688 17.360184,26.28688 17.280266,26.28688 C17.280266,26.300484 17.280266,26.313507 17.280266,26.327103 C17.187088,26.327103 17.093918,26.327103 17.000748,26.327103 C17.000748,26.340126 17.000748,26.35373 17.000748,26.366753 C16.854355,26.366753 16.70787,26.366753 16.561478,26.366753 C16.125275,26.488579 15.094925,26.395111 14.724518,26.28688 C14.644592,26.28688 14.564774,26.28688 14.484856,26.28688 C14.032333,26.167076 13.579628,26.046982 13.127106,25.926605 C13.127106,25.913582 13.127106,25.899979 13.127106,25.886665 C13.100502,25.886665 13.073799,25.886665 13.047195,25.886665 C13.047195,25.87307 13.047195,25.860046 13.047195,25.846443 C13.007324,25.846443 12.967369,25.846443 12.927414,25.846443 C12.927414,25.83342 12.927414,25.819824 12.927414,25.8068 C12.900803,25.8068 12.874191,25.8068 12.847588,25.8068 C12.847588,25.793198 12.847588,25.780174 12.847588,25.766571 C12.807632,25.766571 12.76767,25.766571 12.727707,25.766571 C12.727707,25.753265 12.727707,25.739662 12.727707,25.726639 C12.6744995,25.713043 12.621277,25.70002 12.56797,25.686417 C12.56797,25.673393 12.56797,25.66008 12.56797,25.646774 C12.541367,25.646774 12.514755,25.646774 12.488144,25.646774 C12.488144,25.633461 12.488144,25.619858 12.488144,25.606544 C12.368362,25.566612 12.248489,25.52668 12.128708,25.486458 C12.115448,25.459831 12.102097,25.433212 12.088745,25.406586 C12.062141,25.406586 12.035538,25.406586 12.008926,25.406586 C12.008926,25.393562 12.008926,25.37996 12.008926,25.366653 C11.982315,25.366653 11.955612,25.366653 11.9290085,25.366653 C11.9290085,25.35305 11.9290085,25.340027 11.9290085,25.326424 C11.902405,25.326424 11.875793,25.326424 11.849182,25.326424 C11.849182,25.313408 11.849182,25.300095 11.849182,25.286781 C11.822578,25.286781 11.795876,25.286781 11.769272,25.286781 C11.756012,25.260162 11.7426605,25.233246 11.729401,25.206627 C11.676094,25.193314 11.622879,25.18 11.569664,25.166687 C11.556313,25.140068 11.542961,25.113441 11.529709,25.086533 C11.503098,25.086533 11.476486,25.086533 11.449783,25.086533 C11.436531,25.059906 11.42318,25.033287 11.409927,25.00666 C11.3832245,25.00666 11.356613,25.00666 11.330002,25.00666 C11.330002,24.993347 11.330002,24.980042 11.330002,24.966438 C11.290047,24.953125 11.250183,24.939812 11.21022,24.926506 C11.196869,24.90017 11.183617,24.873543 11.170265,24.846634 C11.1436615,24.846634 11.11705,24.846634 11.090439,24.846634 C11.063835,24.806702 11.037132,24.766762 11.010529,24.72683 C10.983917,24.72683 10.957306,24.72683 10.930702,24.72683 C10.9040985,24.686607 10.877396,24.646675 10.850784,24.606735 C10.824173,24.606735 10.797569,24.606735 10.770966,24.606735 C10.717651,24.539894 10.664436,24.473625 10.611221,24.406487 C10.58461,24.406487 10.557907,24.406487 10.531303,24.406487 C10.305092,24.166298 10.07869,23.926697 9.852478,23.686508 C9.77256,23.61995 9.692642,23.5531 9.6128235,23.486542 C9.6128235,23.459923 9.6128235,23.433296 9.6128235,23.406677 C9.546249,23.353142 9.479691,23.299896 9.413116,23.24636 C9.413116,23.219734 9.413116,23.193115 9.413116,23.166489 C9.3732605,23.13987 9.333298,23.112953 9.293335,23.086334 C9.293335,23.059708 9.293335,23.033089 9.293335,23.006462 C9.25338,22.979553 9.213516,22.952927 9.173553,22.926598 C9.173553,22.899971 9.173553,22.873344 9.173553,22.846436 C9.14695,22.833122 9.120247,22.819809 9.093643,22.806503 C9.093643,22.779877 9.093643,22.753258 9.093643,22.726341 C9.067032,22.713028 9.040421,22.699722 9.013817,22.686409 C9.013817,22.659782 9.013817,22.633163 9.013817,22.606537 C8.987213,22.592941 8.96051,22.579628 8.933899,22.566315 C8.933899,22.539978 8.933899,22.51336 8.933899,22.486732 C8.907288,22.473137 8.880684,22.459824 8.85408,22.44622 C8.840729,22.392975 8.827469,22.33973 8.814117,22.286194 C8.787506,22.27317 8.760902,22.259575 8.734299,22.246552 C8.734299,22.219925 8.734299,22.193016 8.734299,22.16639 C8.720947,22.16639 8.707596,22.16639 8.694336,22.16639 C8.694336,22.13977 8.694336,22.113144 8.694336,22.086525 C8.6809845,22.086525 8.667725,22.086525 8.654373,22.086525 C8.654373,22.059608 8.654373,22.03299 8.654373,22.006363 C8.641121,22.006363 8.627769,22.006363 8.614418,22.006363 C8.614418,21.979744 8.614418,21.952827 8.614418,21.925919 C8.587814,21.912895 8.561203,21.899292 8.534592,21.886269 C8.494637,21.766174 8.454681,21.646088 8.41481,21.526283 C8.401459,21.526283 8.388107,21.526283 8.374855,21.526283 C8.374855,21.499657 8.374855,21.473038 8.374855,21.446411 C8.361504,21.446411 8.348251,21.446411 8.3349,21.446411 C8.32164,21.392876 8.308289,21.33963 8.294937,21.286095 C8.281677,21.286095 8.268326,21.286095 8.255074,21.286095 C8.255074,21.246452 8.255074,21.20623 8.255074,21.16629 C8.241722,21.16629 8.228371,21.16629 8.215118,21.16629 C8.215118,21.139671 8.215118,21.113045 8.215118,21.086426 C8.201767,21.086426 8.188507,21.086426 8.175156,21.086426 C8.175156,21.046196 8.175156,21.006264 8.175156,20.966042 C8.161896,20.966042 8.148544,20.966042 8.135193,20.966042 C8.135193,20.939705 8.135193,20.913086 8.135193,20.88617 C8.121941,20.88617 8.108589,20.88617 8.095337,20.88617 C8.095337,20.846237 8.095337,20.806305 8.095337,20.766083 C8.081985,20.766083 8.068634,20.766083 8.055374,20.766083 C8.055374,20.726143 8.055374,20.68621 8.055374,20.646278 C8.042023,20.646278 8.028763,20.646278 8.015411,20.646278 C8.015411,20.606049 8.015411,20.566116 8.015411,20.526474 C8.002159,20.526474 7.9888077,20.526474 7.975456,20.526474 C7.975456,20.472939 7.975456,20.419693 7.975456,20.366158 C7.962204,20.366158 7.9488525,20.366158 7.9355927,20.366158 C7.9355927,20.325928 7.9355927,20.286285 7.9355927,20.246063 C7.922241,20.246063 7.90889,20.246063 7.89563,20.246063 C7.815811,19.832535 7.7358932,19.419014 7.6559753,19.005775 C7.6559753,18.859352 7.6559753,18.712631 7.6559753,18.566208 C7.6427155,18.566208 7.629364,18.566208 7.6161118,18.566208 C7.5622253,18.372322 7.616493,17.586655 7.6559753,17.445724 C7.6559753,17.299301 7.6559753,17.152298 7.6559753,17.005867 C7.736557,16.721405 7.7681274,16.35476 7.8556747,16.08564 C7.8556747,16.032394 7.8556747,15.978855 7.8556747,15.92561 C7.869026,15.92561 7.8822784,15.92561 7.89563,15.92561 C7.89563,15.872364 7.89563,15.8191185 7.89563,15.765583 C7.90889,15.765583 7.922241,15.765583 7.9355927,15.765583 C7.9355927,15.725647 7.9355927,15.685715 7.9355927,15.645779 C7.9488525,15.645779 7.962204,15.645779 7.975456,15.645779 C7.975456,15.592243 7.975456,15.538998 7.975456,15.485462 C7.9888077,15.485462 8.002159,15.485462 8.015411,15.485462 C8.015411,15.44553 8.015411,15.405594 8.015411,15.365368 C8.028763,15.365368 8.042023,15.365368 8.055374,15.365368 C8.055374,15.325436 8.055374,15.2857895 8.055374,15.245567 C8.068634,15.245567 8.081985,15.245567 8.095337,15.245567 C8.095337,15.205631 8.095337,15.165409 8.095337,15.125763 C8.108589,15.125763 8.121941,15.125763 8.135193,15.125763 C8.135193,15.09885 8.135193,15.0722275 8.135193,15.045605 C8.148544,15.045605 8.161896,15.045605 8.175156,15.045605 C8.175156,15.005379 8.175156,14.965446 8.175156,14.92551 C8.188507,14.92551 8.201767,14.92551 8.215118,14.92551 C8.215118,14.898888 8.215118,14.872265 8.215118,14.845642 C8.228371,14.845642 8.241722,14.845642 8.255074,14.845642 C8.255074,14.80542 8.255074,14.765484 8.255074,14.725548 C8.268326,14.725548 8.281677,14.725548 8.294937,14.725548 C8.308289,14.672012 8.32164,14.618767 8.3349,14.565231 C8.348251,14.565231 8.361504,14.565231 8.374855,14.565231 C8.374855,14.538898 8.374855,14.512276 8.374855,14.485653 C8.388107,14.485653 8.401459,14.485653 8.41481,14.485653 C8.41481,14.445141 8.41481,14.405495 8.41481,14.365269 C8.42807,14.365269 8.4414215,14.365269 8.454681,14.365269 C8.468033,14.311737 8.481384,14.258488 8.494637,14.205242 C8.507988,14.205242 8.52124,14.205242 8.534592,14.205242 C8.534592,14.178329 8.534592,14.151707 8.534592,14.125374 C8.561203,14.112064 8.587814,14.098751 8.614418,14.085438 C8.614418,14.058529 8.614418,14.031902 8.614418,14.00528 C8.627769,14.00528 8.641121,14.00528 8.654373,14.00528 C8.654373,13.978657 8.654373,13.952034 8.654373,13.925121 C8.667725,13.925121 8.6809845,13.925121 8.694336,13.925121 C8.694336,13.898499 8.694336,13.871876 8.694336,13.845253 C8.707596,13.845253 8.720947,13.845253 8.734299,13.845253 C8.734299,13.81863 8.734299,13.791718 8.734299,13.765095 C8.760902,13.752071 8.787506,13.738762 8.814117,13.725449 C8.827469,13.672203 8.840729,13.618668 8.85408,13.565422 C8.867332,13.565422 8.880684,13.565422 8.894035,13.565422 C8.907288,13.5252 8.920639,13.485264 8.933899,13.445618 C8.96051,13.432018 8.987213,13.418995 9.013817,13.405106 C9.013817,13.378483 9.013817,13.35215 9.013817,13.325527 C9.027069,13.325527 9.040421,13.325527 9.053772,13.325527 C9.067032,13.285301 9.080383,13.245369 9.093643,13.205143 C9.120247,13.192123 9.14695,13.17852 9.173553,13.165501 C9.173553,13.138588 9.173553,13.111965 9.173553,13.085339 C9.213516,13.058716 9.25338,13.032093 9.293335,13.00518 C9.293335,12.978558 9.293335,12.951935 9.293335,12.925312 C9.333298,12.898689 9.3732605,12.871777 9.413116,12.845154 C9.413116,12.818531 9.413116,12.791908 9.413116,12.7652855 C9.479691,12.71175 9.546249,12.6585045 9.6128235,12.604969 C9.6128235,12.578346 9.6128235,12.552013 9.6128235,12.525391 C9.77256,12.378674 9.932297,12.2319565 10.092041,12.085239 C10.238434,11.925213 10.384918,11.765186 10.531303,11.60516 C10.557907,11.60516 10.58461,11.60516 10.611221,11.60516 C10.664436,11.538601 10.717651,11.471756 10.770966,11.405197 C10.797569,11.405197 10.824173,11.405197 10.850784,11.405197 C10.877396,11.365261 10.9040985,11.325039 10.930702,11.285103 C10.957306,11.285103 10.983917,11.285103 11.010529,11.285103 C11.037132,11.244881 11.063835,11.205235 11.090439,11.165012 C11.11705,11.165012 11.1436615,11.165012 11.170265,11.165012 C11.183617,11.1381 11.196869,11.111477 11.21022,11.084854 C11.250183,11.071831 11.290047,11.058231 11.330002,11.045208 C11.330002,11.031605 11.330002,11.018295 11.330002,11.004696 C11.356613,11.004696 11.3832245,11.004696 11.409927,11.004696 C11.42318,10.978073 11.436531,10.951736 11.449783,10.925114 C11.489746,10.911804 11.529709,10.898491 11.569664,10.8848915 C11.569664,10.871578 11.569664,10.858269 11.569664,10.844955 C11.622879,10.831646 11.676094,10.818333 11.729401,10.805023 C11.7426605,10.7784 11.756012,10.751488 11.769272,10.724865 C11.849182,10.698238 11.9290085,10.671616 12.008926,10.644993 C12.008926,10.631393 12.008926,10.61808 12.008926,10.604771 C12.035538,10.604771 12.062141,10.604771 12.088745,10.604771 C12.102097,10.578148 12.115448,10.551525 12.128708,10.524902 C12.248489,10.484966 12.368362,10.444744 12.488144,10.405098 C12.488144,10.391785 12.488144,10.378475 12.488144,10.364872 C12.514755,10.364872 12.541367,10.364872 12.56797,10.364872 C12.56797,10.3515625 12.56797,10.338249 12.56797,10.32494 C12.621277,10.311626 12.6744995,10.298317 12.727707,10.285004 C12.727707,10.271694 12.727707,10.258381 12.727707,10.2447815 C12.76767,10.2447815 12.807632,10.2447815 12.847588,10.2447815 C12.847588,10.231468 12.847588,10.218159 12.847588,10.204845 C12.874191,10.204845 12.900803,10.204845 12.927414,10.204845 C12.927414,10.191536 12.927414,10.178513 12.927414,10.164913 C12.967369,10.164913 13.007324,10.164913 13.047195,10.164913 C13.047195,10.15189 13.047195,10.13829 13.047195,10.125267 C13.073799,10.125267 13.100502,10.125267 13.127106,10.125267 C13.127106,10.111378 13.127106,10.098354 13.127106,10.084755 C13.166977,10.084755 13.206932,10.084755 13.246887,10.084755 C13.246887,10.071732 13.246887,10.058132 13.246887,10.045109 C13.28685,10.045109 13.326813,10.045109 13.366669,10.045109 C13.366669,10.031506 13.366669,10.018486 13.366669,10.004883 C13.406631,10.004883 13.446594,10.004883 13.48645,10.004883 C13.48645,9.991863 13.48645,9.977974 13.48645,9.964951 C13.579628,9.951347 13.672897,9.938328 13.7660675,9.924725 C13.7660675,9.911705 13.7660675,9.898102 13.7660675,9.885082 C13.81929,9.885082 13.872498,9.885082 13.925812,9.885082 C13.925812,9.871479 13.925812,9.858459 13.925812,9.844856 C13.979027,9.844856 14.032242,9.844856 14.085556,9.844856 C14.085556,9.831547 14.085556,9.818523 14.085556,9.804924 C14.152115,9.804924 14.218689,9.804924 14.285156,9.804924 C14.285156,9.791901 14.285156,9.778301 14.285156,9.765278 C14.351723,9.765278 14.418289,9.765278 14.484856,9.765278 C14.484856,9.751675 14.484856,9.738655 14.484856,9.724766 C14.564774,9.724766 14.644592,9.724766 14.724518,9.724766 C14.724518,9.711742 14.724518,9.698139 14.724518,9.68512 C14.817688,9.68512 14.910858,9.68512 15.004036,9.68512 C15.004036,9.671516 15.004036,9.658497 15.004036,9.644894 C15.150421,9.644894 15.2969055,9.644894 15.443298,9.644894 C15.583771,9.605827 16.369034,9.550846 16.561478,9.605251 C16.561478,9.618271 16.561478,9.631874 16.561478,9.644894 C16.70787,9.644894 16.854355,9.644894 17.000748,9.644894 C17.000748,9.658497 17.000748,9.671516 17.000748,9.68512 C17.093918,9.68512 17.187088,9.68512 17.280266,9.68512 C17.280266,9.698139 17.280266,9.711742 17.280266,9.724766 C17.360184,9.724766 17.440002,9.724766 17.519928,9.724766 C17.519928,9.738655 17.519928,9.751675 17.519928,9.765278 C17.586487,9.765278 17.65306,9.765278 17.71962,9.765278 C17.71962,9.778301 17.71962,9.791901 17.71962,9.804924 C17.839401,9.818523 17.959183,9.831547 18.078964,9.844856 C18.078964,9.858459 18.078964,9.871479 18.078964,9.885082 C18.132278,9.885082 18.185493,9.885082 18.238708,9.885082 C18.238708,9.898102 18.238708,9.911705 18.238708,9.924725 C18.331879,9.938328 18.425156,9.951347 18.518326,9.964951 C18.518326,9.977974 18.518326,9.991863 18.518326,10.004883 C18.55819,10.004883 18.598145,10.004883 18.638107,10.004883 C18.638107,10.018486 18.638107,10.031506 18.638107,10.045109 C18.67807,10.045109 18.717926,10.045109 18.757889,10.045109 C18.757889,10.058132 18.757889,10.071732 18.757889,10.084755 C18.797852,10.084755 18.837807,10.084755 18.87767,10.084755 C18.87767,10.098354 18.87767,10.111378 18.87767,10.125267 C18.904282,10.125267 18.930984,10.125267 18.957588,10.125267 C18.957588,10.13829 18.957588,10.15189 18.957588,10.164913 C19.104736,10.229443 19.258087,10.213818 19.356888,10.32494 C19.343636,10.32494 19.330284,10.32494 19.316933,10.32494 C19.255615,10.432011 19.16034,10.482075 19.07737,10.5651245 C18.917633,10.724865 18.757889,10.8848915 18.598145,11.045208 C18.45176,11.205235 18.305275,11.365261 18.15889,11.525002 C18.092316,11.578537 18.025757,11.631783 17.959183,11.685028 C17.959183,11.711941 17.959183,11.738564 17.959183,11.765186 C17.919228,11.77821 17.879364,11.791809 17.839401,11.804832 C17.82605,11.831745 17.812798,11.858368 17.799446,11.884991 C17.73288,11.938236 17.666313,11.991772 17.599747,12.045017 C17.53328,12.138775 17.466614,12.2319565 17.400146,12.324848 C17.373535,12.324848 17.346832,12.324848 17.32022,12.324848 C17.160484,12.498768 17.000748,12.671814 16.841003,12.845154 C16.707962,12.845154 16.574738,12.845154 16.441696,12.845154 C16.391632,12.800301 15.692207,12.768181 15.56308,12.805222 C15.56308,12.818531 15.56308,12.831844 15.56308,12.845154 C15.443298,12.845154 15.323517,12.845154 15.203735,12.845154 C15.203735,12.858467 15.203735,12.871777 15.203735,12.88538 C15.137169,12.88538 15.070602,12.88538 15.004036,12.88538 C15.004036,12.898689 15.004036,12.912003 15.004036,12.925312 C14.9374695,12.925312 14.870903,12.925312 14.804337,12.925312 C14.804337,12.938625 14.804337,12.951935 14.804337,12.964958 C14.7511215,12.964958 14.697815,12.964958 14.644592,12.964958 C14.644592,12.978558 14.644592,12.991581 14.644592,13.00518 C14.604637,13.00518 14.564774,13.00518 14.524811,13.00518 C14.524811,13.018494 14.524811,13.032093 14.524811,13.045116 C14.471603,13.045116 14.418289,13.045116 14.365074,13.045116 C14.365074,13.058716 14.365074,13.071739 14.365074,13.085339 C14.33847,13.085339 14.311859,13.085339 14.285156,13.085339 C14.285156,13.098362 14.285156,13.111965 14.285156,13.124985 C14.205338,13.138588 14.125412,13.151897 14.045593,13.165501 C14.045593,13.17852 14.045593,13.192123 14.045593,13.205143 C13.992378,13.218746 13.939072,13.231766 13.885849,13.245369 C13.885849,13.2583885 13.885849,13.271992 13.885849,13.285301 C13.845894,13.285301 13.805939,13.285301 13.7660675,13.285301 C13.7660675,13.298904 13.7660675,13.311924 13.7660675,13.325527 C13.739464,13.325527 13.712761,13.325527 13.686157,13.325527 C13.686157,13.338547 13.686157,13.35215 13.686157,13.36517 C13.659546,13.36517 13.632935,13.36517 13.606331,13.36517 C13.592979,13.392082 13.579727,13.418995 13.566376,13.445618 C13.486549,13.471954 13.406631,13.498577 13.326714,13.5252 C13.313461,13.552113 13.30011,13.578735 13.28685,13.605358 C13.233536,13.618668 13.180328,13.631981 13.127106,13.64529 C13.100502,13.685516 13.073799,13.725449 13.047195,13.765095 C13.020584,13.765095 12.993973,13.765095 12.967369,13.765095 C12.954018,13.791718 12.940765,13.81863 12.927414,13.845253 C12.900803,13.845253 12.874191,13.845253 12.847588,13.845253 C12.807632,13.898499 12.76767,13.952034 12.727707,14.00528 C11.981461,14.544109 11.473534,15.344822 11.090439,16.245377 C11.077087,16.339134 11.063736,16.432312 11.050484,16.525787 C11.037132,16.525787 11.02388,16.525787 11.010529,16.525787 C11.010529,16.56572 11.010529,16.605652 11.010529,16.645592 C10.997269,16.645592 10.983917,16.645592 10.970566,16.645592 C10.970566,16.699127 10.970566,16.752373 10.970566,16.805618 C10.957306,16.805618 10.943954,16.805618 10.930702,16.805618 C10.930702,16.872467 10.930702,16.938728 10.930702,17.005867 C10.766571,17.545853 10.764191,18.46608 10.930702,19.005775 C10.943954,19.12616 10.957306,19.245964 10.970566,19.366348 C10.983917,19.366348 10.997269,19.366348 11.010529,19.366348 C11.010529,19.40599 11.010529,19.445923 11.010529,19.486145 C11.02388,19.486145 11.037132,19.486145 11.050484,19.486145 C11.063736,19.57933 11.077087,19.672798 11.090439,19.765976 C11.103699,19.765976 11.11705,19.765976 11.13031,19.765976 C11.13031,19.792603 11.13031,19.81923 11.13031,19.846138 C11.1436615,19.846138 11.157013,19.846138 11.170265,19.846138 C11.170265,19.88607 11.170265,19.92601 11.170265,19.965942 C11.183617,19.965942 11.196869,19.965942 11.21022,19.965942 C11.22348,20.019478 11.236832,20.072723 11.250183,20.126259 C11.263443,20.126259 11.276794,20.126259 11.290047,20.126259 C11.330002,20.246063 11.369965,20.366158 11.409927,20.485962 C11.436531,20.499557 11.463135,20.51287 11.489746,20.526474 C11.503098,20.57943 11.516357,20.632675 11.529709,20.68621 C11.556313,20.699524 11.582916,20.71283 11.609528,20.726143 C11.622879,20.779678 11.63623,20.832924 11.64949,20.88617 C11.6894455,20.913086 11.729401,20.939705 11.769272,20.966042 C11.782623,21.006264 11.795975,21.046196 11.809227,21.086426 C11.822578,21.086426 11.835831,21.086426 11.849182,21.086426 C11.849182,21.113045 11.849182,21.139671 11.849182,21.16629 C11.902405,21.20623 11.955711,21.246452 12.008926,21.286095 C12.659424,22.191856 13.620926,22.712166 14.804337,23.086334 C14.870903,23.086334 14.9374695,23.086334 15.004036,23.086334 C15.004036,23.09964 15.004036,23.112953 15.004036,23.126556 C15.070602,23.126556 15.137169,23.126556 15.203735,23.126556 C15.203735,23.13987 15.203735,23.153175 15.203735,23.166489 C15.323517,23.166489 15.443298,23.166489 15.56308,23.166489 C15.56308,23.179802 15.56308,23.193115 15.56308,23.206429 C15.759155,23.261406 16.30275,23.205559 16.441696,23.166489 C16.561478,23.166489 16.68126,23.166489 16.80104,23.166489 C16.80104,23.153175 16.80104,23.13987 16.80104,23.126556 C16.867615,23.126556 16.934174,23.126556 17.000748,23.126556 C17.000748,23.112953 17.000748,23.09964 17.000748,23.086334 C17.067307,23.086334 17.13388,23.086334 17.20044,23.086334 C17.20044,23.07331 17.20044,23.059708 17.20044,23.046684 C17.253662,23.046684 17.306969,23.046684 17.360184,23.046684 C17.360184,23.033089 17.360184,23.020065 17.360184,23.006462 C17.400146,23.006462 17.440002,23.006462 17.479965,23.006462 C17.479965,22.993149 17.479965,22.979553 17.479965,22.96653 C17.53318,22.96653 17.586487,22.96653 17.63971,22.96653 C17.63971,22.952927 17.63971,22.939903 17.63971,22.926598 C17.666313,22.926598 17.692917,22.926598 17.71962,22.926598 C17.71962,22.913284 17.71962,22.899971 17.71962,22.886658 C17.799446,22.873344 17.879364,22.859749 17.959183,22.846436 C17.959183,22.833122 17.959183,22.819809 17.959183,22.806503 C18.012405,22.79319 18.065712,22.779877 18.118927,22.766563 C18.118927,22.753258 18.118927,22.739944 18.118927,22.726341 C18.238708,22.686409 18.358582,22.646477 18.478363,22.606537 C18.491623,22.579628 18.504974,22.553001 18.518326,22.526382 C18.57154,22.51336 18.624756,22.499756 18.67807,22.486732 C18.691322,22.459824 18.704674,22.433197 18.717926,22.406578 C18.744537,22.406578 18.77124,22.406578 18.797852,22.406578 C18.797852,22.392975 18.797852,22.379951 18.797852,22.366356 C18.824455,22.366356 18.851059,22.366356 18.87767,22.366356 C18.904282,22.326416 18.930984,22.286194 18.957588,22.246552 C18.984192,22.246552 19.010803,22.246552 19.037415,22.246552 C19.050766,22.219925 19.064018,22.193016 19.07737,22.16639 C19.103973,22.16639 19.130585,22.16639 19.157288,22.16639 C19.197151,22.113144 19.237106,22.059608 19.27707,22.006363 C19.30368,22.006363 19.330284,22.006363 19.356888,22.006363 C19.47667,21.872963 19.59655,21.739845 19.716331,21.606438 C19.80951,21.526283 19.90268,21.446411 19.99585,21.366257 C19.99585,21.33963 19.99585,21.313011 19.99585,21.286095 C20.049072,21.246452 20.102379,21.20623 20.155594,21.16629 C20.155594,21.139671 20.155594,21.113045 20.155594,21.086426 C20.182205,21.072823 20.208908,21.0598 20.235512,21.046196 C20.235512,21.019287 20.235512,20.99266 20.235512,20.966042 C20.275375,20.939705 20.315338,20.913086 20.355293,20.88617 C20.355293,20.85955 20.355293,20.832924 20.355293,20.806305 C20.368546,20.806305 20.381897,20.806305 20.395248,20.806305 C20.395248,20.779678 20.395248,20.75277 20.395248,20.726143 C20.42186,20.71283 20.448471,20.699524 20.475075,20.68621 C20.488426,20.632675 20.501678,20.57943 20.51503,20.526474 C20.541641,20.51287 20.568253,20.499557 20.594856,20.485962 C20.594856,20.459335 20.594856,20.432709 20.594856,20.40609 C20.608208,20.40609 20.62156,20.40609 20.634811,20.40609 C20.648163,20.352554 20.661423,20.299309 20.674774,20.246063 C20.688034,20.246063 20.701385,20.246063 20.714737,20.246063 C20.714737,20.206131 20.714737,20.165901 20.714737,20.126259 C20.72799,20.126259 20.74134,20.126259 20.754593,20.126259 C20.767944,20.072723 20.781296,20.019478 20.794556,19.965942 C20.807907,19.965942 20.821167,19.965942 20.834518,19.965942 C20.84777,19.899384 20.861122,19.832535 20.874474,19.765976 C20.887726,19.765976 20.901077,19.765976 20.914337,19.765976 C20.927689,19.672798 20.94104,19.57933 20.9543,19.486145 C20.967651,19.486145 20.980904,19.486145 20.994255,19.486145 C20.994255,19.445923 20.994255,19.40599 20.994255,19.366348 C21.007507,19.366348 21.020859,19.366348 21.03421,19.366348 C21.03421,19.312813 21.03421,19.259567 21.03421,19.206314 C21.04747,19.206314 21.060822,19.206314 21.074081,19.206314 C21.074081,19.139183 21.074081,19.072914 21.074081,19.005775 C21.087433,19.005775 21.100784,19.005775 21.114037,19.005775 C21.114037,18.939507 21.114037,18.872665 21.114037,18.806107 C21.127388,18.806107 21.14064,18.806107 21.153992,18.806107 C21.153992,18.686012 21.153992,18.566208 21.153992,18.445824 C21.25747,18.077156 21.154373,17.600258 21.153992,17.205544 C21.24717,17.139275 21.340347,17.072136 21.433517,17.005867 C21.446869,16.965935 21.460129,16.925713 21.47348,16.885773 C21.633217,16.752373 21.792953,16.618965 21.952698,16.485565 C21.952698,16.458939 21.952698,16.432312 21.952698,16.405403 C21.965958,16.405403 21.97931,16.405403 21.99266,16.405403 C22.045868,16.339134 22.09909,16.271996 22.152397,16.205734 C22.179,16.205734 22.205612,16.205734 22.232224,16.205734 C22.245575,16.179108 22.258827,16.152199 22.272179,16.125572 C22.28543,16.125572 22.298782,16.125572 22.312134,16.125572 C22.431915,15.979145 22.551697,15.832142 22.671478,15.685715 C22.69809,15.685715 22.724792,15.685715 22.751404,15.685715 C22.778008,15.645779 22.804611,15.6055565 22.831223,15.56562 C22.857834,15.552311 22.884537,15.538998 22.91114,15.525688 C22.91114,15.4987755 22.91114,15.472153 22.91114,15.44553 C22.990967,15.378971 23.070877,15.312412 23.150703,15.245567 C23.164055,15.218655 23.177307,15.192032 23.190659,15.165409 C23.21727,15.165409 23.243881,15.165409 23.270485,15.165409 C23.297188,15.125763 23.323792,15.085251 23.350403,15.045605 C23.377014,15.0320015 23.403618,15.018982 23.430222,15.005379 C23.430222,14.979046 23.430222,14.951843 23.430222,14.92551 C23.443573,14.92551 23.456924,14.92551 23.470184,14.92551 C23.5234,14.858955 23.576706,14.792107 23.629929,14.725548 C23.669884,14.725548 23.709839,14.725548 23.74971,14.725548 Z"/>
</svg>